<svg width="926" height="257" viewBox="0 0 926 257" fill="none" xmlns="http://www.w3.org/2000/svg">
<path d="M294.5 128.5C294.5 199.469 199.469 257 128.5 257C57.5314 257 0 199.469 0 128.5C0 57.5314 57.5314 0 128.5 0C199.469 0 294.5 57.5314 294.5 128.5Z" fill="#B4C5F2"/>
<path d="M630 128.5C630 199.469 533.969 257 463 257C392.031 257 295.5 199.469 295.5 128.5C295.5 57.5314 392.031 0 463 0C533.969 0 630 57.5314 630 128.5Z" fill="#8092C3"/>
<path d="M631 128.5C631 199.469 726.031 257 797 257C867.969 257 925.5 199.469 925.5 128.5C925.5 57.5314 867.969 0 797 0C726.031 0 631 57.5314 631 128.5Z" fill="#B4C5F2"/>
</svg>
