<svg width="926" height="257" viewBox="0 0 926 257" fill="none" xmlns="http://www.w3.org/2000/svg">
<path d="M294.5 128.5C294.5 199.469 199.469 257 128.5 257C57.5314 257 0 199.469 0 128.5C0 57.5314 57.5314 0 128.5 0C199.469 0 294.5 57.5314 294.5 128.5Z" fill="#B4C5F2"/>
<path d="M630 128.5C630 199.469 533.969 257 463 257C392.031 257 295.5 199.469 295.5 128.5C295.5 57.5314 392.031 0 463 0C533.969 0 630 57.5314 630 128.5Z" fill="#8092C3"/>
<path d="M631 128.5C631 199.469 726.031 257 797 257C867.969 257 925.5 199.469 925.5 128.5C925.5 57.5314 867.969 0 797 0C726.031 0 631 57.5314 631 128.5Z" fill="#B4C5F2"/>
<path d="M89.0897 107C88.9457 107 88.8737 106.928 88.8737 106.784V91.496C88.8737 91.352 88.9457 91.28 89.0897 91.28H93.1457C96.6177 91.28 98.3537 92.584 98.3537 95.192C98.3537 96.072 98.1457 96.792 97.7297 97.352C97.3297 97.896 96.6817 98.336 95.7857 98.672V98.72C96.8417 98.928 97.6417 99.368 98.1857 100.04C98.7297 100.696 99.0017 101.568 99.0017 102.656C99.0017 104.128 98.5377 105.224 97.6097 105.944C96.6817 106.648 95.2177 107 93.2177 107H89.0897ZM90.7937 105.32H93.1937C94.5697 105.32 95.5617 105.096 96.1697 104.648C96.7777 104.2 97.0817 103.488 97.0817 102.512C97.0817 101.52 96.7777 100.8 96.1697 100.352C95.5617 99.888 94.6177 99.656 93.3377 99.656H90.7937V105.32ZM90.7937 98.096H93.1937C94.2817 98.096 95.0897 97.88 95.6177 97.448C96.1617 97 96.4337 96.336 96.4337 95.456C96.4337 94.56 96.1617 93.92 95.6177 93.536C95.0737 93.136 94.1777 92.936 92.9297 92.936H90.7937V98.096ZM106.151 107.264C104.631 107.264 103.471 106.88 102.671 106.112C101.871 105.344 101.471 104.2 101.471 102.68V99.608C101.471 98.088 101.863 96.944 102.647 96.176C103.447 95.408 104.615 95.024 106.151 95.024C107.671 95.024 108.831 95.408 109.631 96.176C110.431 96.944 110.831 98.088 110.831 99.608V102.68C110.831 104.2 110.431 105.344 109.631 106.112C108.847 106.88 107.687 107.264 106.151 107.264ZM106.151 105.56C107.095 105.56 107.791 105.312 108.239 104.816C108.687 104.32 108.911 103.56 108.911 102.536V99.776C108.911 98.752 108.687 97.992 108.239 97.496C107.791 97 107.095 96.752 106.151 96.752C105.191 96.752 104.487 97 104.039 97.496C103.591 97.992 103.367 98.752 103.367 99.776V102.536C103.367 103.56 103.591 104.32 104.039 104.816C104.487 105.312 105.191 105.56 106.151 105.56ZM117.115 111.704C116.171 111.704 115.379 111.56 114.739 111.272C114.099 110.984 113.627 110.576 113.323 110.048C113.035 109.536 112.931 108.944 113.011 108.272C113.027 108.032 113.115 107.912 113.275 107.912H114.715C114.859 107.912 114.931 108.024 114.931 108.248C114.915 108.824 115.091 109.264 115.459 109.568C115.827 109.888 116.395 110.048 117.163 110.048C118.059 110.048 118.723 109.832 119.155 109.4C119.603 108.984 119.827 108.352 119.827 107.504V105.992C119.827 105.24 119.595 104.68 119.131 104.312C118.667 103.944 117.947 103.76 116.971 103.76H115.219C115.155 103.76 115.099 103.744 115.051 103.712C115.019 103.664 115.003 103.608 115.003 103.544V102.32C115.003 102.256 115.019 102.208 115.051 102.176C115.099 102.128 115.155 102.104 115.219 102.104H116.827C117.643 102.104 118.283 101.872 118.747 101.408C119.227 100.944 119.467 100.32 119.467 99.536V98.864C119.467 98.112 119.275 97.56 118.891 97.208C118.523 96.84 117.947 96.656 117.163 96.656C116.475 96.656 115.947 96.792 115.579 97.064C115.227 97.336 115.051 97.72 115.051 98.216C115.067 98.312 115.059 98.392 115.027 98.456C114.995 98.504 114.939 98.528 114.859 98.528H113.395C113.235 98.528 113.147 98.4 113.131 98.144C113.067 97.248 113.411 96.504 114.163 95.912C114.915 95.32 115.987 95.024 117.379 95.024C118.675 95.024 119.651 95.32 120.307 95.912C120.979 96.504 121.315 97.384 121.315 98.552V99.536C121.315 100.256 121.139 100.904 120.787 101.48C120.435 102.056 119.939 102.48 119.299 102.752V102.776C120.131 102.968 120.739 103.344 121.123 103.904C121.523 104.464 121.723 105.144 121.723 105.944V107.264C121.723 108.688 121.331 109.784 120.547 110.552C119.763 111.32 118.619 111.704 117.115 111.704ZM129.12 107.264C127.632 107.264 126.52 106.888 125.784 106.136C125.048 105.384 124.68 104.256 124.68 102.752V94.472C124.68 93.112 125.056 92.088 125.808 91.4C126.576 90.696 127.688 90.344 129.144 90.344C130.472 90.344 131.464 90.64 132.12 91.232C132.776 91.808 133.104 92.672 133.104 93.824C133.104 94.704 132.928 95.472 132.576 96.128C132.224 96.768 131.736 97.224 131.112 97.496V97.52C132.072 97.648 132.76 98.024 133.176 98.648C133.608 99.256 133.824 100.072 133.824 101.096V102.584C133.824 104.104 133.416 105.264 132.6 106.064C131.8 106.864 130.64 107.264 129.12 107.264ZM129.168 105.56C130.096 105.56 130.784 105.312 131.232 104.816C131.68 104.32 131.904 103.56 131.904 102.536V100.976C131.904 100.208 131.728 99.648 131.376 99.296C131.024 98.928 130.48 98.744 129.744 98.744C129.472 98.744 129.168 98.768 128.832 98.816C128.496 98.864 128.136 98.928 127.752 99.008C127.384 99.088 127 99.192 126.6 99.32V102.608C126.6 103.648 126.8 104.4 127.2 104.864C127.6 105.328 128.256 105.56 129.168 105.56ZM126.6 97.808L128.544 97.376C129.36 97.184 130.008 96.848 130.488 96.368C130.968 95.888 131.208 95.184 131.208 94.256C131.208 93.472 131.024 92.904 130.656 92.552C130.304 92.2 129.752 92.024 129 92.024C128.216 92.024 127.616 92.224 127.2 92.624C126.8 93.008 126.6 93.592 126.6 94.376V97.808ZM142.002 107.264C141.442 107.264 140.842 107.184 140.202 107.024C139.578 106.864 139.05 106.648 138.618 106.376L138.57 104.768C139.034 105.024 139.53 105.224 140.058 105.368C140.586 105.512 141.082 105.584 141.546 105.584C142.41 105.584 143.05 105.328 143.466 104.816C143.898 104.304 144.114 103.536 144.114 102.512V99.344C144.114 98.448 143.954 97.792 143.634 97.376C143.33 96.96 142.858 96.752 142.218 96.752C141.674 96.752 141.122 96.92 140.562 97.256C140.002 97.576 139.322 98.12 138.522 98.888L138.45 97.208C138.962 96.712 139.442 96.304 139.89 95.984C140.354 95.664 140.818 95.424 141.282 95.264C141.746 95.104 142.226 95.024 142.722 95.024C143.81 95.024 144.634 95.368 145.194 96.056C145.754 96.744 146.034 97.792 146.034 99.2V102.68C146.034 104.152 145.69 105.288 145.002 106.088C144.314 106.872 143.314 107.264 142.002 107.264ZM137.178 111.44C137.034 111.44 136.962 111.368 136.962 111.224V98.024C136.962 97.64 136.946 97.224 136.914 96.776C136.898 96.328 136.866 95.928 136.818 95.576C136.802 95.4 136.874 95.312 137.034 95.312H138.402C138.546 95.312 138.626 95.384 138.642 95.528C138.674 95.736 138.714 96.024 138.762 96.392C138.81 96.744 138.826 97.016 138.81 97.208L138.882 98.192V111.224C138.882 111.368 138.81 111.44 138.666 111.44H137.178ZM155.653 107C155.525 107 155.445 106.904 155.413 106.712C155.381 106.52 155.341 106.216 155.293 105.8C155.245 105.384 155.213 105 155.197 104.648L155.125 103.928V98.888C155.125 98.088 154.965 97.528 154.645 97.208C154.341 96.872 153.813 96.704 153.061 96.704C151.669 96.704 150.973 97.24 150.973 98.312C150.973 98.456 150.909 98.528 150.781 98.528H149.317C149.173 98.528 149.093 98.4 149.077 98.144C149.013 97.2 149.341 96.448 150.061 95.888C150.781 95.328 151.797 95.04 153.109 95.024C154.437 95.024 155.421 95.336 156.061 95.96C156.717 96.584 157.045 97.552 157.045 98.864V104.12C157.045 104.68 157.053 105.184 157.069 105.632C157.101 106.064 157.141 106.44 157.189 106.76C157.221 106.92 157.149 107 156.973 107H155.653ZM151.309 107.264C150.429 107.264 149.749 106.992 149.269 106.448C148.805 105.888 148.573 105.08 148.573 104.024C148.573 103.224 148.725 102.568 149.029 102.056C149.333 101.528 149.821 101.12 150.493 100.832C151.181 100.528 152.077 100.328 153.181 100.232L155.437 100.016V101.456L153.229 101.648C152.205 101.744 151.493 101.96 151.093 102.296C150.693 102.616 150.493 103.144 150.493 103.88C150.493 104.44 150.605 104.872 150.829 105.176C151.053 105.464 151.397 105.608 151.861 105.608C152.373 105.608 152.901 105.432 153.445 105.08C154.005 104.712 154.701 104.072 155.533 103.16L155.557 104.768C154.757 105.664 154.029 106.304 153.373 106.688C152.717 107.072 152.029 107.264 151.309 107.264ZM160.662 107C160.518 107 160.446 106.928 160.446 106.784V98.216C160.446 97.752 160.438 97.288 160.422 96.824C160.406 96.36 160.366 95.944 160.302 95.576C160.27 95.4 160.35 95.312 160.542 95.312H161.886C162.014 95.312 162.086 95.368 162.102 95.48C162.134 95.736 162.166 96 162.198 96.272C162.246 96.544 162.278 96.832 162.294 97.136C162.982 96.432 163.638 95.904 164.262 95.552C164.886 95.2 165.558 95.024 166.278 95.024C167.03 95.024 167.646 95.216 168.126 95.6C168.606 95.968 168.934 96.512 169.11 97.232C169.83 96.48 170.502 95.928 171.126 95.576C171.766 95.208 172.454 95.024 173.19 95.024C174.182 95.024 174.934 95.352 175.446 96.008C175.958 96.648 176.214 97.584 176.214 98.816V106.784C176.214 106.928 176.142 107 175.998 107H174.51C174.366 107 174.294 106.928 174.294 106.784V98.96C174.294 98.224 174.158 97.672 173.886 97.304C173.614 96.936 173.198 96.752 172.638 96.752C172.142 96.752 171.622 96.912 171.078 97.232C170.55 97.552 169.95 98.048 169.278 98.72V106.784C169.278 106.928 169.206 107 169.062 107H167.598C167.438 107 167.358 106.928 167.358 106.784V98.96C167.358 98.224 167.222 97.672 166.95 97.304C166.678 96.936 166.262 96.752 165.702 96.752C165.206 96.752 164.694 96.912 164.166 97.232C163.638 97.552 163.038 98.048 162.366 98.72V106.784C162.366 106.928 162.294 107 162.15 107H160.662ZM188.933 107.264C187.445 107.264 186.333 106.888 185.597 106.136C184.861 105.384 184.493 104.256 184.493 102.752V94.472C184.493 93.112 184.869 92.088 185.621 91.4C186.389 90.696 187.501 90.344 188.957 90.344C190.285 90.344 191.277 90.64 191.933 91.232C192.589 91.808 192.917 92.672 192.917 93.824C192.917 94.704 192.741 95.472 192.389 96.128C192.037 96.768 191.549 97.224 190.925 97.496V97.52C191.885 97.648 192.573 98.024 192.989 98.648C193.421 99.256 193.637 100.072 193.637 101.096V102.584C193.637 104.104 193.229 105.264 192.413 106.064C191.613 106.864 190.453 107.264 188.933 107.264ZM188.98 105.56C189.909 105.56 190.597 105.312 191.045 104.816C191.493 104.32 191.717 103.56 191.717 102.536V100.976C191.717 100.208 191.541 99.648 191.189 99.296C190.837 98.928 190.293 98.744 189.557 98.744C189.285 98.744 188.981 98.768 188.645 98.816C188.309 98.864 187.949 98.928 187.565 99.008C187.197 99.088 186.813 99.192 186.413 99.32V102.608C186.413 103.648 186.613 104.4 187.013 104.864C187.413 105.328 188.069 105.56 188.98 105.56ZM186.413 97.808L188.357 97.376C189.173 97.184 189.821 96.848 190.301 96.368C190.781 95.888 191.021 95.184 191.021 94.256C191.021 93.472 190.837 92.904 190.469 92.552C190.117 92.2 189.565 92.024 188.812 92.024C188.029 92.024 187.429 92.224 187.013 92.624C186.613 93.008 186.413 93.592 186.413 94.376V97.808ZM83.1075 136C82.9635 136 82.8915 135.928 82.8915 135.784V127.216C82.8915 126.752 82.8835 126.288 82.8675 125.824C82.8515 125.36 82.8115 124.944 82.7475 124.576C82.7155 124.4 82.7955 124.312 82.9875 124.312H84.3315C84.4595 124.312 84.5315 124.368 84.5475 124.48C84.5795 124.736 84.6115 125 84.6435 125.272C84.6915 125.544 84.7235 125.832 84.7395 126.136C85.4275 125.432 86.0835 124.904 86.7075 124.552C87.3315 124.2 88.0035 124.024 88.7235 124.024C89.4755 124.024 90.0915 124.216 90.5715 124.6C91.0515 124.968 91.3795 125.512 91.5555 126.232C92.2755 125.48 92.9475 124.928 93.5715 124.576C94.2115 124.208 94.8995 124.024 95.6355 124.024C96.6275 124.024 97.3795 124.352 97.8915 125.008C98.4035 125.648 98.6595 126.584 98.6595 127.816V135.784C98.6595 135.928 98.5875 136 98.4435 136H96.9555C96.8115 136 96.7395 135.928 96.7395 135.784V127.96C96.7395 127.224 96.6035 126.672 96.3315 126.304C96.0595 125.936 95.6435 125.752 95.0835 125.752C94.5875 125.752 94.0675 125.912 93.5235 126.232C92.9955 126.552 92.3955 127.048 91.7235 127.72V135.784C91.7235 135.928 91.6515 136 91.5075 136H90.0435C89.8835 136 89.8035 135.928 89.8035 135.784V127.96C89.8035 127.224 89.6675 126.672 89.3955 126.304C89.1235 125.936 88.7075 125.752 88.1475 125.752C87.6515 125.752 87.1395 125.912 86.6115 126.232C86.0835 126.552 85.4835 127.048 84.8115 127.72V135.784C84.8115 135.928 84.7395 136 84.5955 136H83.1075ZM106.335 136.264C104.863 136.264 103.735 135.912 102.951 135.208C102.183 134.488 101.799 133.424 101.799 132.016V128.584C101.799 127.096 102.183 125.968 102.951 125.2C103.735 124.416 104.855 124.024 106.311 124.024C107.799 124.024 108.927 124.408 109.695 125.176C110.463 125.928 110.847 127.032 110.847 128.488V130.36C110.847 130.504 110.775 130.576 110.631 130.576H103.695V131.608C103.695 132.648 103.911 133.408 104.343 133.888C104.775 134.352 105.471 134.584 106.431 134.584C107.183 134.584 107.751 134.448 108.135 134.176C108.535 133.904 108.727 133.512 108.711 133C108.711 132.84 108.791 132.76 108.951 132.76H110.415C110.527 132.76 110.599 132.824 110.631 132.952C110.679 133.976 110.319 134.784 109.551 135.376C108.799 135.968 107.727 136.264 106.335 136.264ZM103.695 128.992H108.927V128.608C108.927 127.616 108.711 126.888 108.279 126.424C107.863 125.944 107.215 125.704 106.335 125.704C105.455 125.704 104.791 125.952 104.343 126.448C103.911 126.928 103.695 127.648 103.695 128.608V128.992ZM120.715 136C120.571 136 120.499 135.928 120.499 135.784V130.864C119.907 131.424 119.275 131.864 118.603 132.184C117.947 132.504 117.291 132.664 116.635 132.664C115.627 132.664 114.867 132.352 114.355 131.728C113.859 131.104 113.611 130.192 113.611 128.992V124.528C113.611 124.384 113.683 124.312 113.827 124.312H115.315C115.459 124.312 115.531 124.384 115.531 124.528V128.68C115.531 129.464 115.659 130.048 115.915 130.432C116.171 130.816 116.579 131.008 117.139 131.008C117.747 131.008 118.323 130.84 118.867 130.504C119.427 130.152 119.971 129.704 120.499 129.16V124.528C120.499 124.384 120.571 124.312 120.715 124.312H122.203C122.347 124.312 122.419 124.384 122.419 124.528V135.784C122.419 135.928 122.347 136 122.203 136H120.715ZM130.1 136.264C128.628 136.264 127.5 135.912 126.716 135.208C125.948 134.488 125.564 133.424 125.564 132.016V128.584C125.564 127.096 125.948 125.968 126.716 125.2C127.5 124.416 128.62 124.024 130.076 124.024C131.564 124.024 132.692 124.408 133.46 125.176C134.228 125.928 134.612 127.032 134.612 128.488V130.36C134.612 130.504 134.54 130.576 134.396 130.576H127.46V131.608C127.46 132.648 127.676 133.408 128.108 133.888C128.54 134.352 129.236 134.584 130.196 134.584C130.948 134.584 131.516 134.448 131.9 134.176C132.3 133.904 132.492 133.512 132.476 133C132.476 132.84 132.556 132.76 132.716 132.76H134.18C134.292 132.76 134.364 132.824 134.396 132.952C134.444 133.976 134.084 134.784 133.316 135.376C132.564 135.968 131.492 136.264 130.1 136.264ZM127.46 128.992H132.692V128.608C132.692 127.616 132.476 126.888 132.044 126.424C131.628 125.944 130.98 125.704 130.1 125.704C129.22 125.704 128.556 125.952 128.108 126.448C127.676 126.928 127.46 127.648 127.46 128.608V128.992ZM144.96 136C144.816 136 144.744 135.928 144.744 135.784V124.528C144.744 124.384 144.816 124.312 144.96 124.312H146.448C146.592 124.312 146.664 124.384 146.664 124.528V135.784C146.664 135.928 146.592 136 146.448 136H144.96ZM137.904 136C137.76 136 137.688 135.928 137.688 135.784V124.528C137.688 124.384 137.76 124.312 137.904 124.312H139.392C139.536 124.312 139.608 124.384 139.608 124.528V135.784C139.608 135.928 139.536 136 139.392 136H137.904ZM139.272 130.84V129.184H145.08V130.84H139.272ZM153.111 136.264C152.135 136.264 151.383 135.944 150.855 135.304C150.343 134.648 150.087 133.688 150.087 132.424V124.528C150.087 124.384 150.159 124.312 150.303 124.312H151.791C151.935 124.312 152.007 124.384 152.007 124.528V132.304C152.007 133.088 152.143 133.664 152.415 134.032C152.703 134.384 153.135 134.56 153.711 134.56C154.303 134.56 154.879 134.376 155.439 134.008C156.015 133.64 156.695 133.048 157.479 132.232L157.503 133.888C157.023 134.416 156.535 134.856 156.039 135.208C155.559 135.56 155.071 135.824 154.575 136C154.095 136.176 153.607 136.264 153.111 136.264ZM157.671 136C157.527 136 157.439 135.928 157.407 135.784C157.375 135.464 157.343 135.136 157.311 134.8C157.279 134.448 157.255 134.096 157.239 133.744L157.119 132.928V124.528C157.119 124.384 157.191 124.312 157.335 124.312H158.823C158.967 124.312 159.039 124.384 159.039 124.528V133.096C159.039 133.56 159.047 134.016 159.063 134.464C159.079 134.912 159.119 135.344 159.183 135.76C159.215 135.92 159.135 136 158.943 136H157.671ZM165.462 136.264C164.486 136.264 163.734 135.944 163.206 135.304C162.694 134.648 162.438 133.688 162.438 132.424V124.528C162.438 124.384 162.51 124.312 162.654 124.312H164.142C164.286 124.312 164.358 124.384 164.358 124.528V132.304C164.358 133.088 164.494 133.664 164.766 134.032C165.054 134.384 165.486 134.56 166.062 134.56C166.654 134.56 167.23 134.376 167.79 134.008C168.366 133.64 169.046 133.048 169.83 132.232L169.854 133.888C169.374 134.416 168.886 134.856 168.39 135.208C167.91 135.56 167.422 135.824 166.926 136C166.446 136.176 165.958 136.264 165.462 136.264ZM170.022 136C169.878 136 169.79 135.928 169.758 135.784C169.726 135.464 169.694 135.136 169.662 134.8C169.63 134.448 169.606 134.096 169.59 133.744L169.47 132.928V124.528C169.47 124.384 169.542 124.312 169.686 124.312H171.174C171.318 124.312 171.39 124.384 171.39 124.528V133.096C171.39 133.56 171.398 134.016 171.414 134.464C171.43 134.912 171.47 135.344 171.534 135.76C171.566 135.92 171.486 136 171.294 136H170.022ZM179.137 136C178.977 136 178.897 135.928 178.897 135.784V134.488C178.897 134.328 178.977 134.248 179.137 134.248H182.689V122.464L179.257 123.592C179.097 123.64 179.017 123.584 179.017 123.424V122.104C179.017 121.976 179.065 121.904 179.161 121.888L183.889 120.232C184.017 120.2 184.121 120.184 184.201 120.184H184.393C184.537 120.184 184.609 120.256 184.609 120.4V134.248H187.801C187.945 134.248 188.017 134.328 188.017 134.488V135.784C188.017 135.928 187.945 136 187.801 136H179.137ZM196.646 136C196.502 136 196.43 135.928 196.43 135.784V132.88H188.918C188.758 132.88 188.678 132.8 188.678 132.64V132.472C188.678 132.328 188.702 132.224 188.75 132.16L194.798 120.448C194.894 120.336 194.99 120.28 195.086 120.28H196.574C196.654 120.28 196.71 120.304 196.742 120.352C196.774 120.384 196.774 120.44 196.742 120.52L191.246 131.128H196.454L196.502 125.848C196.534 125.688 196.614 125.608 196.742 125.608H198.062C198.222 125.608 198.302 125.688 198.302 125.848V131.128H200.03C200.19 131.128 200.27 131.208 200.27 131.368V132.64C200.27 132.8 200.19 132.88 200.03 132.88H198.302V135.784C198.302 135.928 198.222 136 198.062 136H196.646ZM122.542 169.704C121.15 169.704 120.086 169.416 119.35 168.84C118.63 168.28 118.302 167.552 118.366 166.656C118.382 166.432 118.47 166.32 118.63 166.32H120.094C120.222 166.32 120.286 166.416 120.286 166.608C120.27 167.072 120.454 167.424 120.838 167.664C121.238 167.92 121.806 168.048 122.542 168.048C123.486 168.048 124.166 167.84 124.582 167.424C124.998 167.024 125.206 166.36 125.206 165.432V164.52C125.206 164.232 125.206 163.952 125.206 163.68C125.206 163.408 125.206 163.136 125.206 162.864C124.55 163.456 123.918 163.896 123.31 164.184C122.702 164.456 122.046 164.592 121.342 164.592C120.222 164.592 119.382 164.256 118.822 163.584C118.262 162.896 117.982 161.848 117.982 160.44V157.632C117.982 156.08 118.35 154.928 119.086 154.176C119.838 153.408 120.974 153.024 122.494 153.024C123.326 153.024 124.086 153.104 124.774 153.264C125.462 153.424 126.246 153.544 127.126 153.624V165.312C127.126 166.272 126.95 167.072 126.598 167.712C126.246 168.368 125.726 168.864 125.038 169.2C124.366 169.536 123.534 169.704 122.542 169.704ZM121.846 162.888C122.358 162.888 122.87 162.752 123.382 162.48C123.91 162.208 124.518 161.752 125.206 161.112V155.016C124.806 154.936 124.366 154.872 123.886 154.824C123.422 154.76 123.006 154.728 122.638 154.728C121.694 154.728 120.998 154.968 120.55 155.448C120.118 155.928 119.902 156.696 119.902 157.752V160.296C119.902 161.208 120.054 161.872 120.358 162.288C120.662 162.688 121.158 162.888 121.846 162.888ZM137.824 165C137.68 165 137.608 164.928 137.608 164.784V153.528C137.608 153.384 137.68 153.312 137.824 153.312H139.312C139.456 153.312 139.528 153.384 139.528 153.528V164.784C139.528 164.928 139.456 165 139.312 165H137.824ZM130.768 165C130.624 165 130.552 164.928 130.552 164.784V153.528C130.552 153.384 130.624 153.312 130.768 153.312H132.256C132.4 153.312 132.472 153.384 132.472 153.528V164.784C132.472 164.928 132.4 165 132.256 165H130.768ZM132.136 159.84V158.184H137.944V159.84H132.136ZM147.198 165.264C145.726 165.264 144.598 164.912 143.814 164.208C143.046 163.488 142.662 162.424 142.662 161.016V157.584C142.662 156.096 143.046 154.968 143.814 154.2C144.598 153.416 145.718 153.024 147.174 153.024C148.662 153.024 149.79 153.408 150.558 154.176C151.326 154.928 151.71 156.032 151.71 157.488V159.36C151.71 159.504 151.638 159.576 151.494 159.576H144.558V160.608C144.558 161.648 144.774 162.408 145.206 162.888C145.638 163.352 146.334 163.584 147.294 163.584C148.046 163.584 148.614 163.448 148.998 163.176C149.398 162.904 149.59 162.512 149.574 162C149.574 161.84 149.654 161.76 149.814 161.76H151.278C151.39 161.76 151.462 161.824 151.494 161.952C151.542 162.976 151.182 163.784 150.414 164.376C149.662 164.968 148.59 165.264 147.198 165.264ZM144.558 157.992H149.79V157.608C149.79 156.616 149.574 155.888 149.142 155.424C148.726 154.944 148.078 154.704 147.198 154.704C146.318 154.704 145.654 154.952 145.206 155.448C144.774 155.928 144.558 156.648 144.558 157.608V157.992ZM157.81 165.264C156.834 165.264 156.082 164.944 155.554 164.304C155.042 163.648 154.786 162.688 154.786 161.424V153.528C154.786 153.384 154.858 153.312 155.002 153.312H156.49C156.634 153.312 156.706 153.384 156.706 153.528V161.304C156.706 162.088 156.842 162.664 157.114 163.032C157.402 163.384 157.834 163.56 158.41 163.56C159.002 163.56 159.578 163.376 160.138 163.008C160.714 162.64 161.394 162.048 162.178 161.232L162.202 162.888C161.722 163.416 161.234 163.856 160.738 164.208C160.258 164.56 159.77 164.824 159.274 165C158.794 165.176 158.306 165.264 157.81 165.264ZM162.37 165C162.226 165 162.138 164.928 162.106 164.784C162.074 164.464 162.042 164.136 162.01 163.8C161.978 163.448 161.954 163.096 161.938 162.744L161.818 161.928V153.528C161.818 153.384 161.89 153.312 162.034 153.312H163.522C163.666 153.312 163.738 153.384 163.738 153.528V162.096C163.738 162.56 163.746 163.016 163.762 163.464C163.778 163.912 163.818 164.344 163.882 164.76C163.914 164.92 163.834 165 163.642 165H162.37ZM159.274 151.656C158.538 151.656 157.946 151.52 157.498 151.248C157.05 150.96 156.738 150.728 156.562 150.552C156.498 150.504 156.466 150.416 156.466 150.288V149.112C156.466 149.032 156.49 148.976 156.538 148.944C156.586 148.896 156.642 148.912 156.706 148.992C156.93 149.2 157.266 149.44 157.714 149.712C158.162 149.968 158.682 150.096 159.274 150.096C159.882 150.096 160.402 149.968 160.834 149.712C161.282 149.44 161.618 149.2 161.842 148.992C161.922 148.912 161.978 148.896 162.01 148.944C162.058 148.976 162.082 149.032 162.082 149.112V150.288C162.082 150.416 162.058 150.504 162.01 150.552C161.834 150.728 161.522 150.96 161.074 151.248C160.626 151.52 160.026 151.656 159.274 151.656Z" fill="black"/>
<path d="M398.336 107C398.192 107 398.12 106.928 398.12 106.784V91.496C398.12 91.352 398.192 91.28 398.336 91.28H406.256C406.4 91.28 406.472 91.352 406.472 91.496V92.816C406.472 92.96 406.4 93.032 406.256 93.032H400.04V97.424H402.536C404.392 97.424 405.776 97.816 406.688 98.6C407.616 99.368 408.08 100.52 408.08 102.056C408.08 103.672 407.616 104.904 406.688 105.752C405.76 106.584 404.368 107 402.512 107H398.336ZM400.04 105.344H402.44C403.704 105.344 404.64 105.08 405.248 104.552C405.856 104.008 406.16 103.176 406.16 102.056C406.16 101.016 405.864 100.256 405.272 99.776C404.68 99.28 403.736 99.032 402.44 99.032H400.04V105.344ZM415.112 107.264C413.64 107.264 412.512 106.912 411.728 106.208C410.96 105.488 410.576 104.424 410.576 103.016V99.584C410.576 98.096 410.96 96.968 411.728 96.2C412.512 95.416 413.632 95.024 415.088 95.024C416.576 95.024 417.704 95.408 418.472 96.176C419.24 96.928 419.624 98.032 419.624 99.488V101.36C419.624 101.504 419.552 101.576 419.408 101.576H412.472V102.608C412.472 103.648 412.688 104.408 413.12 104.888C413.552 105.352 414.248 105.584 415.208 105.584C415.96 105.584 416.528 105.448 416.912 105.176C417.312 104.904 417.504 104.512 417.488 104C417.488 103.84 417.568 103.76 417.728 103.76H419.192C419.304 103.76 419.376 103.824 419.408 103.952C419.456 104.976 419.096 105.784 418.328 106.376C417.576 106.968 416.504 107.264 415.112 107.264ZM412.472 99.992H417.704V99.608C417.704 98.616 417.488 97.888 417.056 97.424C416.64 96.944 415.992 96.704 415.112 96.704C414.232 96.704 413.568 96.952 413.12 97.448C412.688 97.928 412.472 98.648 412.472 99.608V99.992ZM427.044 107.264C425.524 107.264 424.372 106.88 423.588 106.112C422.804 105.328 422.412 104.2 422.412 102.728V99.584C422.412 98.112 422.812 96.984 423.612 96.2C424.412 95.416 425.564 95.024 427.068 95.024C427.964 95.024 428.732 95.168 429.372 95.456C430.028 95.744 430.532 96.152 430.884 96.68C431.236 97.208 431.404 97.824 431.388 98.528C431.388 98.832 431.308 98.984 431.148 98.984H429.708C429.564 98.984 429.492 98.88 429.492 98.672C429.508 98.064 429.292 97.592 428.844 97.256C428.412 96.92 427.82 96.752 427.068 96.752C426.14 96.752 425.444 96.992 424.98 97.472C424.532 97.952 424.308 98.704 424.308 99.728V102.584C424.308 103.592 424.532 104.344 424.98 104.84C425.444 105.32 426.14 105.56 427.068 105.56C427.836 105.56 428.428 105.384 428.844 105.032C429.276 104.68 429.484 104.208 429.468 103.616C429.468 103.408 429.54 103.304 429.684 103.304H431.148C431.292 103.304 431.364 103.368 431.364 103.496C431.364 104.68 430.996 105.608 430.26 106.28C429.524 106.936 428.452 107.264 427.044 107.264ZM441.814 107C441.67 107 441.598 106.928 441.598 106.784V99.008C441.598 98.224 441.446 97.656 441.142 97.304C440.838 96.936 440.366 96.752 439.726 96.752C439.134 96.752 438.542 96.936 437.95 97.304C437.358 97.656 436.662 98.232 435.862 99.032L435.814 97.424C436.326 96.88 436.814 96.432 437.278 96.08C437.758 95.728 438.238 95.464 438.718 95.288C439.198 95.112 439.702 95.024 440.23 95.024C441.318 95.024 442.134 95.352 442.678 96.008C443.238 96.648 443.518 97.608 443.518 98.888V106.784C443.518 106.928 443.446 107 443.302 107H441.814ZM434.494 107C434.35 107 434.278 106.928 434.278 106.784V98.216C434.278 97.768 434.262 97.296 434.23 96.8C434.198 96.288 434.166 95.88 434.134 95.576C434.102 95.4 434.174 95.312 434.35 95.312H435.718C435.846 95.312 435.926 95.384 435.958 95.528C436.006 95.768 436.046 96.12 436.078 96.584C436.126 97.048 436.158 97.44 436.174 97.76L436.198 98.312V106.784C436.198 106.928 436.126 107 435.982 107H434.494ZM445.59 107C445.414 107 445.358 106.912 445.422 106.736L449.31 95.6C449.374 95.408 449.494 95.312 449.67 95.312H451.302C451.462 95.312 451.582 95.408 451.662 95.6L455.526 106.736C455.558 106.8 455.558 106.864 455.526 106.928C455.51 106.976 455.462 107 455.382 107H453.798C453.686 107 453.606 106.944 453.558 106.832L451.398 100.256C451.254 99.792 451.102 99.328 450.942 98.864C450.782 98.384 450.638 97.904 450.51 97.424H450.462C450.334 97.92 450.19 98.408 450.03 98.888C449.886 99.352 449.734 99.824 449.574 100.304L447.414 106.832C447.366 106.944 447.286 107 447.174 107H445.59ZM464.266 107C464.138 107 464.058 106.904 464.026 106.712C463.994 106.52 463.954 106.216 463.906 105.8C463.858 105.384 463.826 105 463.81 104.648L463.738 103.928V98.888C463.738 98.088 463.578 97.528 463.258 97.208C462.954 96.872 462.426 96.704 461.674 96.704C460.282 96.704 459.586 97.24 459.586 98.312C459.586 98.456 459.522 98.528 459.394 98.528H457.93C457.786 98.528 457.706 98.4 457.69 98.144C457.626 97.2 457.954 96.448 458.674 95.888C459.394 95.328 460.41 95.04 461.722 95.024C463.05 95.024 464.034 95.336 464.674 95.96C465.33 96.584 465.658 97.552 465.658 98.864V104.12C465.658 104.68 465.666 105.184 465.682 105.632C465.714 106.064 465.754 106.44 465.802 106.76C465.834 106.92 465.762 107 465.586 107H464.266ZM459.922 107.264C459.042 107.264 458.362 106.992 457.882 106.448C457.418 105.888 457.186 105.08 457.186 104.024C457.186 103.224 457.338 102.568 457.642 102.056C457.946 101.528 458.434 101.12 459.106 100.832C459.794 100.528 460.69 100.328 461.794 100.232L464.05 100.016V101.456L461.842 101.648C460.818 101.744 460.106 101.96 459.706 102.296C459.306 102.616 459.106 103.144 459.106 103.88C459.106 104.44 459.218 104.872 459.442 105.176C459.666 105.464 460.01 105.608 460.474 105.608C460.986 105.608 461.514 105.432 462.058 105.08C462.618 104.712 463.314 104.072 464.146 103.16L464.17 104.768C463.37 105.664 462.642 106.304 461.986 106.688C461.33 107.072 460.642 107.264 459.922 107.264ZM469.275 107C469.131 107 469.059 106.928 469.059 106.784V98.216C469.059 97.752 469.051 97.288 469.035 96.824C469.019 96.36 468.979 95.944 468.915 95.576C468.883 95.4 468.963 95.312 469.155 95.312H470.499C470.627 95.312 470.699 95.368 470.715 95.48C470.747 95.736 470.779 96 470.811 96.272C470.859 96.544 470.891 96.832 470.907 97.136C471.595 96.432 472.251 95.904 472.875 95.552C473.499 95.2 474.171 95.024 474.891 95.024C475.643 95.024 476.259 95.216 476.739 95.6C477.219 95.968 477.547 96.512 477.723 97.232C478.443 96.48 479.115 95.928 479.739 95.576C480.379 95.208 481.067 95.024 481.803 95.024C482.795 95.024 483.547 95.352 484.059 96.008C484.571 96.648 484.827 97.584 484.827 98.816V106.784C484.827 106.928 484.755 107 484.611 107H483.123C482.979 107 482.907 106.928 482.907 106.784V98.96C482.907 98.224 482.771 97.672 482.499 97.304C482.227 96.936 481.811 96.752 481.251 96.752C480.755 96.752 480.235 96.912 479.691 97.232C479.163 97.552 478.563 98.048 477.891 98.72V106.784C477.891 106.928 477.819 107 477.675 107H476.211C476.051 107 475.971 106.928 475.971 106.784V98.96C475.971 98.224 475.835 97.672 475.563 97.304C475.291 96.936 474.875 96.752 474.315 96.752C473.819 96.752 473.307 96.912 472.779 97.232C472.251 97.552 471.651 98.048 470.979 98.72V106.784C470.979 106.928 470.907 107 470.763 107H469.275ZM495.527 107C495.383 107 495.311 106.928 495.311 106.784V95.528C495.311 95.384 495.383 95.312 495.527 95.312H497.015C497.159 95.312 497.231 95.384 497.231 95.528V106.784C497.231 106.928 497.159 107 497.015 107H495.527ZM488.471 107C488.327 107 488.255 106.928 488.255 106.784V95.528C488.255 95.384 488.327 95.312 488.471 95.312H489.959C490.103 95.312 490.175 95.384 490.175 95.528V106.784C490.175 106.928 490.103 107 489.959 107H488.471ZM489.839 101.84V100.184H495.647V101.84H489.839ZM507.133 107C507.005 107 506.925 106.904 506.893 106.712C506.861 106.52 506.821 106.216 506.773 105.8C506.725 105.384 506.693 105 506.677 104.648L506.605 103.928V98.888C506.605 98.088 506.445 97.528 506.125 97.208C505.821 96.872 505.293 96.704 504.541 96.704C503.149 96.704 502.453 97.24 502.453 98.312C502.453 98.456 502.389 98.528 502.261 98.528H500.797C500.653 98.528 500.573 98.4 500.557 98.144C500.493 97.2 500.821 96.448 501.541 95.888C502.261 95.328 503.277 95.04 504.589 95.024C505.917 95.024 506.901 95.336 507.541 95.96C508.197 96.584 508.525 97.552 508.525 98.864V104.12C508.525 104.68 508.533 105.184 508.549 105.632C508.581 106.064 508.621 106.44 508.669 106.76C508.701 106.92 508.629 107 508.453 107H507.133ZM502.789 107.264C501.909 107.264 501.229 106.992 500.749 106.448C500.285 105.888 500.053 105.08 500.053 104.024C500.053 103.224 500.205 102.568 500.509 102.056C500.813 101.528 501.301 101.12 501.973 100.832C502.661 100.528 503.557 100.328 504.661 100.232L506.917 100.016V101.456L504.709 101.648C503.685 101.744 502.973 101.96 502.573 102.296C502.173 102.616 501.973 103.144 501.973 103.88C501.973 104.44 502.085 104.872 502.309 105.176C502.533 105.464 502.877 105.608 503.341 105.608C503.853 105.608 504.381 105.432 504.925 105.08C505.485 104.712 506.181 104.072 507.013 103.16L507.037 104.768C506.237 105.664 505.509 106.304 504.853 106.688C504.197 107.072 503.509 107.264 502.789 107.264ZM511.255 107C511.063 107 511.007 106.912 511.087 106.736L512.695 104.072C512.871 103.768 513.047 103.472 513.223 103.184C513.415 102.88 513.615 102.576 513.823 102.272V102.248C513.087 102.04 512.519 101.672 512.119 101.144C511.735 100.616 511.543 99.904 511.543 99.008C511.543 97.776 511.903 96.856 512.623 96.248C513.343 95.624 514.383 95.312 515.743 95.312H519.871C520.015 95.312 520.087 95.384 520.087 95.528V106.784C520.087 106.928 520.015 107 519.871 107H518.383C518.239 107 518.167 106.928 518.167 106.784V102.584H515.695L513.223 106.832C513.159 106.944 513.063 107 512.935 107H511.255ZM515.911 100.976H518.167V96.944H515.743C514.911 96.944 514.319 97.128 513.967 97.496C513.631 97.848 513.463 98.352 513.463 99.008C513.463 99.712 513.663 100.216 514.063 100.52C514.463 100.824 515.079 100.976 515.911 100.976ZM393.878 140.704C392.486 140.704 391.422 140.416 390.686 139.84C389.966 139.28 389.638 138.552 389.702 137.656C389.718 137.432 389.806 137.32 389.966 137.32H391.43C391.558 137.32 391.622 137.416 391.622 137.608C391.606 138.072 391.79 138.424 392.174 138.664C392.574 138.92 393.142 139.048 393.878 139.048C394.822 139.048 395.502 138.84 395.918 138.424C396.334 138.024 396.542 137.36 396.542 136.432V135.52C396.542 135.232 396.542 134.952 396.542 134.68C396.542 134.408 396.542 134.136 396.542 133.864C395.886 134.456 395.254 134.896 394.646 135.184C394.038 135.456 393.382 135.592 392.678 135.592C391.558 135.592 390.718 135.256 390.158 134.584C389.598 133.896 389.318 132.848 389.318 131.44V128.632C389.318 127.08 389.686 125.928 390.422 125.176C391.174 124.408 392.31 124.024 393.83 124.024C394.662 124.024 395.422 124.104 396.11 124.264C396.798 124.424 397.582 124.544 398.462 124.624V136.312C398.462 137.272 398.286 138.072 397.934 138.712C397.582 139.368 397.062 139.864 396.374 140.2C395.702 140.536 394.87 140.704 393.878 140.704ZM393.182 133.888C393.694 133.888 394.206 133.752 394.718 133.48C395.246 133.208 395.854 132.752 396.542 132.112V126.016C396.142 125.936 395.702 125.872 395.222 125.824C394.758 125.76 394.342 125.728 393.974 125.728C393.03 125.728 392.334 125.968 391.886 126.448C391.454 126.928 391.238 127.696 391.238 128.752V131.296C391.238 132.208 391.39 132.872 391.694 133.288C391.998 133.688 392.494 133.888 393.182 133.888ZM406.28 136.264C404.76 136.264 403.6 135.88 402.8 135.112C402 134.344 401.6 133.2 401.6 131.68V128.608C401.6 127.088 401.992 125.944 402.776 125.176C403.576 124.408 404.744 124.024 406.28 124.024C407.8 124.024 408.96 124.408 409.76 125.176C410.56 125.944 410.96 127.088 410.96 128.608V131.68C410.96 133.2 410.56 134.344 409.76 135.112C408.976 135.88 407.816 136.264 406.28 136.264ZM406.28 134.56C407.224 134.56 407.92 134.312 408.368 133.816C408.816 133.32 409.04 132.56 409.04 131.536V128.776C409.04 127.752 408.816 126.992 408.368 126.496C407.92 126 407.224 125.752 406.28 125.752C405.32 125.752 404.616 126 404.168 126.496C403.72 126.992 403.496 127.752 403.496 128.776V131.536C403.496 132.56 403.72 133.32 404.168 133.816C404.616 134.312 405.32 134.56 406.28 134.56ZM418.419 136.264C416.899 136.264 415.747 135.88 414.963 135.112C414.179 134.328 413.787 133.2 413.787 131.728V128.584C413.787 127.112 414.187 125.984 414.987 125.2C415.787 124.416 416.939 124.024 418.443 124.024C419.339 124.024 420.107 124.168 420.747 124.456C421.403 124.744 421.907 125.152 422.259 125.68C422.611 126.208 422.779 126.824 422.763 127.528C422.763 127.832 422.683 127.984 422.523 127.984H421.083C420.939 127.984 420.867 127.88 420.867 127.672C420.883 127.064 420.667 126.592 420.219 126.256C419.787 125.92 419.195 125.752 418.443 125.752C417.515 125.752 416.819 125.992 416.355 126.472C415.907 126.952 415.683 127.704 415.683 128.728V131.584C415.683 132.592 415.907 133.344 416.355 133.84C416.819 134.32 417.515 134.56 418.443 134.56C419.211 134.56 419.803 134.384 420.219 134.032C420.651 133.68 420.859 133.208 420.843 132.616C420.843 132.408 420.915 132.304 421.059 132.304H422.523C422.667 132.304 422.739 132.368 422.739 132.496C422.739 133.68 422.371 134.608 421.635 135.28C420.899 135.936 419.827 136.264 418.419 136.264ZM425.869 136C425.725 136 425.653 135.928 425.653 135.784V127.216C425.653 126.752 425.645 126.288 425.629 125.824C425.613 125.36 425.573 124.944 425.509 124.576C425.477 124.4 425.557 124.312 425.749 124.312H427.093C427.221 124.312 427.293 124.368 427.309 124.48C427.341 124.736 427.373 125 427.405 125.272C427.453 125.544 427.485 125.832 427.501 126.136C428.189 125.432 428.845 124.904 429.469 124.552C430.093 124.2 430.765 124.024 431.485 124.024C432.237 124.024 432.853 124.216 433.333 124.6C433.813 124.968 434.141 125.512 434.317 126.232C435.037 125.48 435.709 124.928 436.333 124.576C436.973 124.208 437.661 124.024 438.397 124.024C439.389 124.024 440.141 124.352 440.653 125.008C441.165 125.648 441.421 126.584 441.421 127.816V135.784C441.421 135.928 441.349 136 441.205 136H439.717C439.573 136 439.501 135.928 439.501 135.784V127.96C439.501 127.224 439.365 126.672 439.093 126.304C438.821 125.936 438.405 125.752 437.845 125.752C437.349 125.752 436.829 125.912 436.285 126.232C435.757 126.552 435.157 127.048 434.485 127.72V135.784C434.485 135.928 434.413 136 434.269 136H432.805C432.645 136 432.565 135.928 432.565 135.784V127.96C432.565 127.224 432.429 126.672 432.157 126.304C431.885 125.936 431.469 125.752 430.909 125.752C430.413 125.752 429.901 125.912 429.373 126.232C428.845 126.552 428.245 127.048 427.573 127.72V135.784C427.573 135.928 427.501 136 427.357 136H425.869ZM451.329 136C451.201 136 451.121 135.904 451.089 135.712C451.057 135.52 451.017 135.216 450.969 134.8C450.921 134.384 450.889 134 450.873 133.648L450.801 132.928V127.888C450.801 127.088 450.641 126.528 450.321 126.208C450.017 125.872 449.489 125.704 448.737 125.704C447.345 125.704 446.649 126.24 446.649 127.312C446.649 127.456 446.585 127.528 446.457 127.528H444.993C444.849 127.528 444.769 127.4 444.753 127.144C444.689 126.2 445.017 125.448 445.737 124.888C446.457 124.328 447.473 124.04 448.785 124.024C450.113 124.024 451.097 124.336 451.737 124.96C452.393 125.584 452.721 126.552 452.721 127.864V133.12C452.721 133.68 452.729 134.184 452.745 134.632C452.777 135.064 452.817 135.44 452.865 135.76C452.897 135.92 452.825 136 452.649 136H451.329ZM446.985 136.264C446.105 136.264 445.425 135.992 444.945 135.448C444.481 134.888 444.249 134.08 444.249 133.024C444.249 132.224 444.401 131.568 444.705 131.056C445.009 130.528 445.497 130.12 446.169 129.832C446.857 129.528 447.753 129.328 448.857 129.232L451.113 129.016V130.456L448.905 130.648C447.881 130.744 447.169 130.96 446.769 131.296C446.369 131.616 446.169 132.144 446.169 132.88C446.169 133.44 446.281 133.872 446.505 134.176C446.729 134.464 447.073 134.608 447.537 134.608C448.049 134.608 448.577 134.432 449.121 134.08C449.681 133.712 450.377 133.072 451.209 132.16L451.233 133.768C450.433 134.664 449.705 135.304 449.049 135.688C448.393 136.072 447.705 136.264 446.985 136.264ZM460.538 136.264C459.05 136.264 457.938 135.888 457.202 135.136C456.466 134.384 456.098 133.256 456.098 131.752V123.472C456.098 122.112 456.474 121.088 457.226 120.4C457.994 119.696 459.106 119.344 460.562 119.344C461.89 119.344 462.882 119.64 463.538 120.232C464.194 120.808 464.522 121.672 464.522 122.824C464.522 123.704 464.346 124.472 463.994 125.128C463.642 125.768 463.154 126.224 462.53 126.496V126.52C463.49 126.648 464.178 127.024 464.594 127.648C465.026 128.256 465.242 129.072 465.242 130.096V131.584C465.242 133.104 464.834 134.264 464.018 135.064C463.218 135.864 462.058 136.264 460.538 136.264ZM460.586 134.56C461.514 134.56 462.202 134.312 462.65 133.816C463.098 133.32 463.322 132.56 463.322 131.536V129.976C463.322 129.208 463.146 128.648 462.794 128.296C462.442 127.928 461.898 127.744 461.162 127.744C460.89 127.744 460.586 127.768 460.25 127.816C459.914 127.864 459.554 127.928 459.17 128.008C458.802 128.088 458.418 128.192 458.018 128.32V131.608C458.018 132.648 458.218 133.4 458.618 133.864C459.018 134.328 459.674 134.56 460.586 134.56ZM458.018 126.808L459.962 126.376C460.778 126.184 461.426 125.848 461.906 125.368C462.386 124.888 462.626 124.184 462.626 123.256C462.626 122.472 462.442 121.904 462.074 121.552C461.722 121.2 461.17 121.024 460.418 121.024C459.634 121.024 459.034 121.224 458.618 121.624C458.218 122.008 458.018 122.592 458.018 123.376V126.808ZM477.62 135.736C477.668 135.8 477.676 135.864 477.644 135.928C477.612 135.976 477.556 136 477.476 136H475.724C475.58 136 475.492 135.952 475.46 135.856L472.028 130.528H470.3V135.784C470.3 135.928 470.228 136 470.084 136H468.596C468.452 136 468.38 135.928 468.38 135.784V119.824C468.38 119.68 468.452 119.608 468.596 119.608H470.084C470.228 119.608 470.3 119.68 470.3 119.824V128.968H471.98L475.124 124.432C475.188 124.352 475.276 124.312 475.388 124.312H477.092C477.284 124.312 477.324 124.4 477.212 124.576L473.66 129.568L477.62 135.736ZM485.875 136C485.747 136 485.667 135.904 485.635 135.712C485.603 135.52 485.563 135.216 485.515 134.8C485.467 134.384 485.435 134 485.419 133.648L485.347 132.928V127.888C485.347 127.088 485.187 126.528 484.867 126.208C484.563 125.872 484.035 125.704 483.283 125.704C481.891 125.704 481.195 126.24 481.195 127.312C481.195 127.456 481.131 127.528 481.003 127.528H479.539C479.395 127.528 479.315 127.4 479.299 127.144C479.235 126.2 479.563 125.448 480.283 124.888C481.003 124.328 482.019 124.04 483.331 124.024C484.659 124.024 485.643 124.336 486.283 124.96C486.939 125.584 487.267 126.552 487.267 127.864V133.12C487.267 133.68 487.275 134.184 487.291 134.632C487.323 135.064 487.363 135.44 487.411 135.76C487.443 135.92 487.371 136 487.195 136H485.875ZM481.531 136.264C480.651 136.264 479.971 135.992 479.491 135.448C479.027 134.888 478.795 134.08 478.795 133.024C478.795 132.224 478.947 131.568 479.251 131.056C479.555 130.528 480.043 130.12 480.715 129.832C481.403 129.528 482.299 129.328 483.403 129.232L485.659 129.016V130.456L483.451 130.648C482.427 130.744 481.715 130.96 481.315 131.296C480.915 131.616 480.715 132.144 480.715 132.88C480.715 133.44 480.827 133.872 481.051 134.176C481.275 134.464 481.619 134.608 482.083 134.608C482.595 134.608 483.123 134.432 483.667 134.08C484.227 133.712 484.923 133.072 485.755 132.16L485.779 133.768C484.979 134.664 484.251 135.304 483.595 135.688C482.939 136.072 482.251 136.264 481.531 136.264ZM499.936 136.264C498.416 136.264 497.256 135.88 496.456 135.112C495.656 134.344 495.256 133.2 495.256 131.68V128.608C495.256 127.088 495.648 125.944 496.432 125.176C497.232 124.408 498.4 124.024 499.936 124.024C501.456 124.024 502.616 124.408 503.416 125.176C504.216 125.944 504.616 127.088 504.616 128.608V131.68C504.616 133.2 504.216 134.344 503.416 135.112C502.632 135.88 501.472 136.264 499.936 136.264ZM499.936 134.56C500.88 134.56 501.576 134.312 502.024 133.816C502.472 133.32 502.696 132.56 502.696 131.536V128.776C502.696 127.752 502.472 126.992 502.024 126.496C501.576 126 500.88 125.752 499.936 125.752C498.976 125.752 498.272 126 497.824 126.496C497.376 126.992 497.152 127.752 497.152 128.776V131.536C497.152 132.56 497.376 133.32 497.824 133.816C498.272 134.312 498.976 134.56 499.936 134.56ZM507.947 136C507.803 136 507.731 135.928 507.731 135.784V127.216C507.731 126.752 507.723 126.288 507.707 125.824C507.691 125.36 507.651 124.944 507.587 124.576C507.555 124.4 507.635 124.312 507.827 124.312H509.171C509.299 124.312 509.371 124.368 509.387 124.48C509.419 124.736 509.451 125 509.483 125.272C509.531 125.544 509.563 125.832 509.579 126.136C510.267 125.432 510.923 124.904 511.547 124.552C512.171 124.2 512.843 124.024 513.563 124.024C514.315 124.024 514.931 124.216 515.411 124.6C515.891 124.968 516.219 125.512 516.395 126.232C517.115 125.48 517.787 124.928 518.411 124.576C519.051 124.208 519.739 124.024 520.475 124.024C521.467 124.024 522.219 124.352 522.731 125.008C523.243 125.648 523.499 126.584 523.499 127.816V135.784C523.499 135.928 523.427 136 523.283 136H521.795C521.651 136 521.579 135.928 521.579 135.784V127.96C521.579 127.224 521.443 126.672 521.171 126.304C520.899 125.936 520.483 125.752 519.923 125.752C519.427 125.752 518.907 125.912 518.363 126.232C517.835 126.552 517.235 127.048 516.563 127.72V135.784C516.563 135.928 516.491 136 516.347 136H514.883C514.723 136 514.643 135.928 514.643 135.784V127.96C514.643 127.224 514.507 126.672 514.235 126.304C513.963 125.936 513.547 125.752 512.987 125.752C512.491 125.752 511.979 125.912 511.451 126.232C510.923 126.552 510.323 127.048 509.651 127.72V135.784C509.651 135.928 509.579 136 509.435 136H507.947ZM394.893 165C394.749 165 394.677 164.928 394.677 164.784V163.248C394.677 162.448 394.805 161.744 395.061 161.136C395.333 160.512 395.693 159.96 396.141 159.48C396.589 159 397.069 158.568 397.581 158.184C398.109 157.784 398.637 157.408 399.165 157.056C399.693 156.704 400.181 156.344 400.629 155.976C401.077 155.592 401.429 155.184 401.685 154.752C401.957 154.32 402.093 153.824 402.093 153.264V152.832C402.093 152.128 401.861 151.6 401.397 151.248C400.949 150.896 400.277 150.72 399.381 150.72C398.453 150.72 397.765 150.936 397.317 151.368C396.869 151.784 396.653 152.392 396.669 153.192C396.701 153.352 396.637 153.432 396.477 153.432H395.013C394.869 153.432 394.797 153.352 394.797 153.192C394.781 152.296 394.941 151.536 395.277 150.912C395.629 150.288 396.157 149.816 396.861 149.496C397.581 149.176 398.469 149.016 399.525 149.016C401.045 149.016 402.173 149.344 402.909 150C403.645 150.656 404.013 151.624 404.013 152.904C404.013 153.736 403.877 154.456 403.605 155.064C403.349 155.656 402.997 156.176 402.549 156.624C402.117 157.072 401.637 157.48 401.109 157.848C400.597 158.2 400.077 158.552 399.549 158.904C399.037 159.24 398.557 159.608 398.109 160.008C397.677 160.408 397.325 160.872 397.053 161.4C396.797 161.912 396.669 162.528 396.669 163.248H403.725C403.869 163.248 403.941 163.328 403.941 163.488V164.784C403.941 164.928 403.869 165 403.725 165H394.893ZM416.85 165.264C415.25 165.264 414.002 164.808 413.106 163.896C412.21 162.968 411.762 161.672 411.762 160.008V154.272C411.762 152.608 412.21 151.32 413.106 150.408C414.002 149.48 415.25 149.016 416.85 149.016C418.466 149.016 419.722 149.48 420.618 150.408C421.514 151.32 421.962 152.608 421.962 154.272V160.008C421.962 161.672 421.514 162.968 420.618 163.896C419.722 164.808 418.466 165.264 416.85 165.264ZM416.85 163.56C417.842 163.56 418.618 163.264 419.178 162.672C419.738 162.064 420.018 161.216 420.018 160.128V154.152C420.018 153.064 419.738 152.224 419.178 151.632C418.618 151.024 417.842 150.72 416.85 150.72C415.858 150.72 415.082 151.024 414.522 151.632C413.962 152.224 413.682 153.064 413.682 154.152V160.128C413.682 161.216 413.962 162.064 414.522 162.672C415.082 163.264 415.858 163.56 416.85 163.56ZM430.069 165.264C428.469 165.264 427.221 164.808 426.325 163.896C425.429 162.968 424.981 161.672 424.981 160.008V154.272C424.981 152.608 425.429 151.32 426.325 150.408C427.221 149.48 428.469 149.016 430.069 149.016C431.685 149.016 432.941 149.48 433.837 150.408C434.733 151.32 435.181 152.608 435.181 154.272V160.008C435.181 161.672 434.733 162.968 433.837 163.896C432.941 164.808 431.685 165.264 430.069 165.264ZM430.069 163.56C431.061 163.56 431.837 163.264 432.397 162.672C432.957 162.064 433.237 161.216 433.237 160.128V154.152C433.237 153.064 432.957 152.224 432.397 151.632C431.837 151.024 431.061 150.72 430.069 150.72C429.077 150.72 428.301 151.024 427.741 151.632C427.181 152.224 426.901 153.064 426.901 154.152V160.128C426.901 161.216 427.181 162.064 427.741 162.672C428.301 163.264 429.077 163.56 430.069 163.56ZM443.288 165.264C441.688 165.264 440.44 164.808 439.544 163.896C438.648 162.968 438.2 161.672 438.2 160.008V154.272C438.2 152.608 438.648 151.32 439.544 150.408C440.44 149.48 441.688 149.016 443.288 149.016C444.904 149.016 446.16 149.48 447.056 150.408C447.952 151.32 448.4 152.608 448.4 154.272V160.008C448.4 161.672 447.952 162.968 447.056 163.896C446.16 164.808 444.904 165.264 443.288 165.264ZM443.288 163.56C444.28 163.56 445.056 163.264 445.616 162.672C446.176 162.064 446.456 161.216 446.456 160.128V154.152C446.456 153.064 446.176 152.224 445.616 151.632C445.056 151.024 444.28 150.72 443.288 150.72C442.296 150.72 441.52 151.024 440.96 151.632C440.4 152.224 440.12 153.064 440.12 154.152V160.128C440.12 161.216 440.4 162.064 440.96 162.672C441.52 163.264 442.296 163.56 443.288 163.56ZM461.525 165.264C460.965 165.264 460.365 165.184 459.725 165.024C459.101 164.864 458.573 164.648 458.141 164.376L458.093 162.768C458.557 163.024 459.053 163.224 459.581 163.368C460.109 163.512 460.605 163.584 461.069 163.584C461.933 163.584 462.573 163.328 462.989 162.816C463.421 162.304 463.637 161.536 463.637 160.512V157.344C463.637 156.448 463.477 155.792 463.157 155.376C462.853 154.96 462.381 154.752 461.741 154.752C461.197 154.752 460.645 154.92 460.085 155.256C459.525 155.576 458.845 156.12 458.045 156.888L457.973 155.208C458.485 154.712 458.965 154.304 459.413 153.984C459.877 153.664 460.341 153.424 460.805 153.264C461.269 153.104 461.749 153.024 462.245 153.024C463.333 153.024 464.157 153.368 464.717 154.056C465.277 154.744 465.557 155.792 465.557 157.2V160.68C465.557 162.152 465.213 163.288 464.525 164.088C463.837 164.872 462.837 165.264 461.525 165.264ZM456.701 169.44C456.557 169.44 456.485 169.368 456.485 169.224V156.024C456.485 155.64 456.469 155.224 456.437 154.776C456.421 154.328 456.389 153.928 456.341 153.576C456.325 153.4 456.397 153.312 456.557 153.312H457.925C458.069 153.312 458.149 153.384 458.165 153.528C458.197 153.736 458.237 154.024 458.285 154.392C458.333 154.744 458.349 155.016 458.333 155.208L458.405 156.192V169.224C458.405 169.368 458.333 169.44 458.189 169.44H456.701ZM470.07 169.44C470.006 169.44 469.958 169.408 469.926 169.344C469.894 169.296 469.894 169.24 469.926 169.176L471.534 164.88L467.31 153.576C467.262 153.4 467.318 153.312 467.478 153.312H469.086C469.23 153.312 469.31 153.368 469.326 153.48L471.39 159.336C471.566 159.832 471.742 160.352 471.918 160.896C472.094 161.44 472.262 161.968 472.422 162.48H472.47C472.63 161.968 472.798 161.44 472.974 160.896C473.166 160.352 473.342 159.832 473.502 159.336L475.566 153.48C475.582 153.368 475.662 153.312 475.806 153.312H477.366C477.558 153.312 477.614 153.4 477.534 153.576L471.798 169.272C471.75 169.384 471.67 169.44 471.558 169.44H470.07ZM484.343 165.264C482.791 165.264 481.631 164.896 480.863 164.16C480.111 163.408 479.735 162.264 479.735 160.728V154.92C479.735 153.544 479.943 152.488 480.359 151.752C480.775 151 481.335 150.424 482.039 150.024C482.455 149.8 482.895 149.624 483.359 149.496C483.823 149.352 484.287 149.224 484.751 149.112C485.215 148.984 485.655 148.848 486.071 148.704C486.503 148.56 486.887 148.368 487.223 148.128C487.287 148.096 487.343 148.088 487.391 148.104C487.439 148.12 487.471 148.168 487.487 148.248L487.871 149.568C487.903 149.696 487.879 149.8 487.799 149.88C487.463 150.152 487.031 150.352 486.503 150.48C485.991 150.608 485.447 150.736 484.871 150.864C484.295 150.992 483.743 151.184 483.215 151.44C482.687 151.696 482.295 152.072 482.039 152.568C481.783 153.064 481.655 153.704 481.655 154.488V160.584C481.655 161.608 481.863 162.36 482.279 162.84C482.695 163.32 483.391 163.56 484.367 163.56C485.327 163.56 486.015 163.312 486.431 162.816C486.847 162.32 487.055 161.584 487.055 160.608V158.016C487.055 157.168 486.879 156.56 486.527 156.192C486.175 155.808 485.687 155.616 485.063 155.616C484.407 155.616 483.751 155.816 483.095 156.216C482.455 156.616 481.903 157.16 481.439 157.848L481.415 156.072C481.767 155.64 482.151 155.264 482.567 154.944C482.999 154.624 483.463 154.376 483.959 154.2C484.455 154.008 484.983 153.912 485.543 153.912C486.599 153.912 487.431 154.232 488.039 154.872C488.663 155.496 488.975 156.448 488.975 157.728V160.728C488.975 162.232 488.583 163.368 487.799 164.136C487.015 164.888 485.863 165.264 484.343 165.264ZM490.578 165C490.402 165 490.346 164.912 490.41 164.736L494.298 153.6C494.362 153.408 494.482 153.312 494.658 153.312H496.29C496.45 153.312 496.57 153.408 496.65 153.6L500.514 164.736C500.546 164.8 500.546 164.864 500.514 164.928C500.498 164.976 500.45 165 500.37 165H498.786C498.674 165 498.594 164.944 498.546 164.832L496.386 158.256C496.242 157.792 496.09 157.328 495.93 156.864C495.77 156.384 495.626 155.904 495.498 155.424H495.45C495.322 155.92 495.178 156.408 495.018 156.888C494.874 157.352 494.722 157.824 494.562 158.304L492.402 164.832C492.354 164.944 492.274 165 492.162 165H490.578ZM506.647 165.264C505.175 165.264 504.047 164.912 503.263 164.208C502.495 163.488 502.111 162.424 502.111 161.016V157.584C502.111 156.096 502.495 154.968 503.263 154.2C504.047 153.416 505.167 153.024 506.623 153.024C508.111 153.024 509.239 153.408 510.007 154.176C510.775 154.928 511.159 156.032 511.159 157.488V159.36C511.159 159.504 511.087 159.576 510.943 159.576H504.007V160.608C504.007 161.648 504.223 162.408 504.655 162.888C505.087 163.352 505.783 163.584 506.743 163.584C507.495 163.584 508.063 163.448 508.447 163.176C508.847 162.904 509.039 162.512 509.023 162C509.023 161.84 509.103 161.76 509.263 161.76H510.727C510.839 161.76 510.911 161.824 510.943 161.952C510.991 162.976 510.631 163.784 509.863 164.376C509.111 164.968 508.039 165.264 506.647 165.264ZM504.007 157.992H509.239V157.608C509.239 156.616 509.023 155.888 508.591 155.424C508.175 154.944 507.527 154.704 506.647 154.704C505.767 154.704 505.103 154.952 504.655 155.448C504.223 155.928 504.007 156.648 504.007 157.608V157.992ZM517.259 165.264C516.283 165.264 515.531 164.944 515.003 164.304C514.491 163.648 514.235 162.688 514.235 161.424V153.528C514.235 153.384 514.307 153.312 514.451 153.312H515.939C516.083 153.312 516.155 153.384 516.155 153.528V161.304C516.155 162.088 516.291 162.664 516.563 163.032C516.851 163.384 517.283 163.56 517.859 163.56C518.451 163.56 519.027 163.376 519.587 163.008C520.163 162.64 520.843 162.048 521.627 161.232L521.651 162.888C521.171 163.416 520.683 163.856 520.187 164.208C519.707 164.56 519.219 164.824 518.723 165C518.243 165.176 517.755 165.264 517.259 165.264ZM521.819 165C521.675 165 521.587 164.928 521.555 164.784C521.523 164.464 521.491 164.136 521.459 163.8C521.427 163.448 521.403 163.096 521.387 162.744L521.267 161.928V153.528C521.267 153.384 521.339 153.312 521.483 153.312H522.971C523.115 153.312 523.187 153.384 523.187 153.528V162.096C523.187 162.56 523.195 163.016 523.211 163.464C523.227 163.912 523.267 164.344 523.331 164.76C523.363 164.92 523.283 165 523.091 165H521.819ZM518.723 151.656C517.987 151.656 517.395 151.52 516.947 151.248C516.499 150.96 516.187 150.728 516.011 150.552C515.947 150.504 515.915 150.416 515.915 150.288V149.112C515.915 149.032 515.939 148.976 515.987 148.944C516.035 148.896 516.091 148.912 516.155 148.992C516.379 149.2 516.715 149.44 517.163 149.712C517.611 149.968 518.131 150.096 518.723 150.096C519.331 150.096 519.851 149.968 520.283 149.712C520.731 149.44 521.067 149.2 521.291 148.992C521.371 148.912 521.427 148.896 521.459 148.944C521.507 148.976 521.531 149.032 521.531 149.112V150.288C521.531 150.416 521.507 150.504 521.459 150.552C521.283 150.728 520.971 150.96 520.523 151.248C520.075 151.52 519.475 151.656 518.723 151.656Z" fill="white"/>
<path d="M729.004 107C728.86 107 728.788 106.928 728.788 106.784V91.496C728.788 91.352 728.86 91.28 729.004 91.28H739.708C739.852 91.28 739.924 91.352 739.924 91.496V106.784C739.924 106.928 739.852 107 739.708 107H738.22C738.076 107 738.004 106.928 738.004 106.784V93.032H730.708V106.784C730.708 106.928 730.636 107 730.492 107H729.004ZM748.588 107.264C748.028 107.264 747.428 107.184 746.788 107.024C746.164 106.864 745.636 106.648 745.204 106.376L745.156 104.768C745.62 105.024 746.116 105.224 746.644 105.368C747.172 105.512 747.668 105.584 748.132 105.584C748.996 105.584 749.636 105.328 750.052 104.816C750.484 104.304 750.7 103.536 750.7 102.512V99.344C750.7 98.448 750.54 97.792 750.22 97.376C749.916 96.96 749.444 96.752 748.804 96.752C748.26 96.752 747.708 96.92 747.148 97.256C746.588 97.576 745.908 98.12 745.108 98.888L745.036 97.208C745.548 96.712 746.028 96.304 746.476 95.984C746.94 95.664 747.404 95.424 747.868 95.264C748.332 95.104 748.812 95.024 749.308 95.024C750.396 95.024 751.22 95.368 751.78 96.056C752.34 96.744 752.62 97.792 752.62 99.2V102.68C752.62 104.152 752.276 105.288 751.588 106.088C750.9 106.872 749.9 107.264 748.588 107.264ZM743.764 111.44C743.62 111.44 743.548 111.368 743.548 111.224V98.024C743.548 97.64 743.532 97.224 743.5 96.776C743.484 96.328 743.452 95.928 743.404 95.576C743.388 95.4 743.46 95.312 743.62 95.312H744.988C745.132 95.312 745.212 95.384 745.228 95.528C745.26 95.736 745.3 96.024 745.348 96.392C745.396 96.744 745.412 97.016 745.396 97.208L745.468 98.192V111.224C745.468 111.368 745.396 111.44 745.252 111.44H743.764ZM758.806 107.264C757.83 107.264 757.078 106.944 756.55 106.304C756.038 105.648 755.782 104.688 755.782 103.424V95.528C755.782 95.384 755.854 95.312 755.998 95.312H757.486C757.63 95.312 757.702 95.384 757.702 95.528V103.304C757.702 104.088 757.838 104.664 758.11 105.032C758.398 105.384 758.83 105.56 759.406 105.56C759.998 105.56 760.574 105.376 761.134 105.008C761.71 104.64 762.39 104.048 763.174 103.232L763.198 104.888C762.718 105.416 762.23 105.856 761.734 106.208C761.254 106.56 760.766 106.824 760.27 107C759.79 107.176 759.302 107.264 758.806 107.264ZM763.366 107C763.222 107 763.134 106.928 763.102 106.784C763.07 106.464 763.038 106.136 763.006 105.8C762.974 105.448 762.95 105.096 762.934 104.744L762.814 103.928V95.528C762.814 95.384 762.886 95.312 763.03 95.312H764.518C764.662 95.312 764.734 95.384 764.734 95.528V104.096C764.734 104.56 764.742 105.016 764.758 105.464C764.774 105.912 764.814 106.344 764.878 106.76C764.91 106.92 764.83 107 764.638 107H763.366ZM768.206 107C768.062 107 767.99 106.928 767.99 106.784L768.158 95.528C768.158 95.384 768.23 95.312 768.374 95.312H770.006C770.134 95.312 770.214 95.368 770.246 95.48L773.606 102.44L776.966 95.48C777.03 95.368 777.11 95.312 777.206 95.312H778.862C779.006 95.312 779.078 95.384 779.078 95.528L779.246 106.784C779.246 106.928 779.174 107 779.03 107H777.638C777.494 107 777.422 106.928 777.422 106.784L777.374 101C777.374 100.776 777.374 100.488 777.374 100.136C777.39 99.784 777.406 99.424 777.422 99.056C777.454 98.672 777.478 98.336 777.494 98.048H777.422C777.262 98.448 777.102 98.84 776.942 99.224C776.782 99.592 776.63 99.92 776.486 100.208L773.822 105.32C773.774 105.384 773.702 105.416 773.606 105.416C773.558 105.416 773.518 105.408 773.486 105.392C773.47 105.376 773.446 105.352 773.414 105.32L770.726 100.184C770.582 99.896 770.43 99.568 770.27 99.2C770.126 98.832 769.974 98.448 769.814 98.048H769.742C769.774 98.336 769.798 98.664 769.814 99.032C769.83 99.4 769.838 99.76 769.838 100.112C769.854 100.448 769.862 100.728 769.862 100.952L769.814 106.784C769.814 106.928 769.742 107 769.598 107H768.206ZM786.749 107.264C785.277 107.264 784.149 106.912 783.365 106.208C782.597 105.488 782.213 104.424 782.213 103.016V99.584C782.213 98.096 782.597 96.968 783.365 96.2C784.149 95.416 785.269 95.024 786.725 95.024C788.213 95.024 789.341 95.408 790.109 96.176C790.877 96.928 791.261 98.032 791.261 99.488V101.36C791.261 101.504 791.189 101.576 791.045 101.576H784.109V102.608C784.109 103.648 784.325 104.408 784.757 104.888C785.189 105.352 785.885 105.584 786.845 105.584C787.597 105.584 788.165 105.448 788.549 105.176C788.949 104.904 789.141 104.512 789.125 104C789.125 103.84 789.205 103.76 789.365 103.76H790.829C790.941 103.76 791.013 103.824 791.045 103.952C791.093 104.976 790.733 105.784 789.965 106.376C789.213 106.968 788.141 107.264 786.749 107.264ZM784.109 99.992H789.341V99.608C789.341 98.616 789.125 97.888 788.693 97.424C788.277 96.944 787.629 96.704 786.749 96.704C785.869 96.704 785.205 96.952 784.757 97.448C784.325 97.928 784.109 98.648 784.109 99.608V99.992ZM799.377 107.264C798.817 107.264 798.217 107.184 797.577 107.024C796.953 106.864 796.425 106.648 795.993 106.376L795.945 104.768C796.409 105.024 796.905 105.224 797.433 105.368C797.961 105.512 798.457 105.584 798.921 105.584C799.785 105.584 800.425 105.328 800.841 104.816C801.273 104.304 801.489 103.536 801.489 102.512V99.344C801.489 98.448 801.329 97.792 801.009 97.376C800.705 96.96 800.233 96.752 799.593 96.752C799.049 96.752 798.497 96.92 797.937 97.256C797.377 97.576 796.697 98.12 795.897 98.888L795.825 97.208C796.337 96.712 796.817 96.304 797.265 95.984C797.729 95.664 798.193 95.424 798.657 95.264C799.121 95.104 799.601 95.024 800.097 95.024C801.185 95.024 802.009 95.368 802.569 96.056C803.129 96.744 803.409 97.792 803.409 99.2V102.68C803.409 104.152 803.065 105.288 802.377 106.088C801.689 106.872 800.689 107.264 799.377 107.264ZM794.553 111.44C794.409 111.44 794.337 111.368 794.337 111.224V98.024C794.337 97.64 794.321 97.224 794.289 96.776C794.273 96.328 794.241 95.928 794.193 95.576C794.177 95.4 794.249 95.312 794.409 95.312H795.777C795.921 95.312 796.001 95.384 796.017 95.528C796.049 95.736 796.089 96.024 796.137 96.392C796.185 96.744 796.201 97.016 796.185 97.208L796.257 98.192V111.224C796.257 111.368 796.185 111.44 796.041 111.44H794.553ZM815.811 106.736C815.859 106.8 815.867 106.864 815.835 106.928C815.803 106.976 815.747 107 815.667 107H813.915C813.771 107 813.683 106.952 813.651 106.856L810.219 101.528H808.491V106.784C808.491 106.928 808.419 107 808.275 107H806.787C806.643 107 806.571 106.928 806.571 106.784V90.824C806.571 90.68 806.643 90.608 806.787 90.608H808.275C808.419 90.608 808.491 90.68 808.491 90.824V99.968H810.171L813.315 95.432C813.379 95.352 813.467 95.312 813.579 95.312H815.283C815.475 95.312 815.515 95.4 815.403 95.576L811.851 100.568L815.811 106.736ZM824.067 107C823.939 107 823.859 106.904 823.827 106.712C823.795 106.52 823.755 106.216 823.707 105.8C823.659 105.384 823.627 105 823.611 104.648L823.539 103.928V98.888C823.539 98.088 823.379 97.528 823.059 97.208C822.755 96.872 822.227 96.704 821.475 96.704C820.083 96.704 819.387 97.24 819.387 98.312C819.387 98.456 819.323 98.528 819.195 98.528H817.731C817.587 98.528 817.507 98.4 817.491 98.144C817.427 97.2 817.755 96.448 818.475 95.888C819.195 95.328 820.211 95.04 821.523 95.024C822.851 95.024 823.835 95.336 824.475 95.96C825.131 96.584 825.459 97.552 825.459 98.864V104.12C825.459 104.68 825.467 105.184 825.483 105.632C825.515 106.064 825.555 106.44 825.603 106.76C825.635 106.92 825.563 107 825.387 107H824.067ZM819.723 107.264C818.843 107.264 818.163 106.992 817.683 106.448C817.219 105.888 816.987 105.08 816.987 104.024C816.987 103.224 817.139 102.568 817.443 102.056C817.747 101.528 818.235 101.12 818.907 100.832C819.595 100.528 820.491 100.328 821.595 100.232L823.851 100.016V101.456L821.643 101.648C820.619 101.744 819.907 101.96 819.507 102.296C819.107 102.616 818.907 103.144 818.907 103.88C818.907 104.44 819.019 104.872 819.243 105.176C819.467 105.464 819.811 105.608 820.275 105.608C820.787 105.608 821.315 105.432 821.859 105.08C822.419 104.712 823.115 104.072 823.947 103.16L823.971 104.768C823.171 105.664 822.443 106.304 821.787 106.688C821.131 107.072 820.443 107.264 819.723 107.264ZM706.85 136C706.706 136 706.634 135.928 706.634 135.784V127.216C706.634 126.752 706.626 126.288 706.61 125.824C706.594 125.36 706.554 124.944 706.49 124.576C706.458 124.4 706.538 124.312 706.73 124.312H708.074C708.202 124.312 708.274 124.368 708.29 124.48C708.322 124.736 708.354 125 708.386 125.272C708.434 125.544 708.466 125.832 708.482 126.136C709.17 125.432 709.826 124.904 710.45 124.552C711.074 124.2 711.746 124.024 712.466 124.024C713.218 124.024 713.834 124.216 714.314 124.6C714.794 124.968 715.122 125.512 715.298 126.232C716.018 125.48 716.69 124.928 717.314 124.576C717.954 124.208 718.642 124.024 719.378 124.024C720.37 124.024 721.122 124.352 721.634 125.008C722.146 125.648 722.402 126.584 722.402 127.816V135.784C722.402 135.928 722.33 136 722.186 136H720.698C720.554 136 720.482 135.928 720.482 135.784V127.96C720.482 127.224 720.346 126.672 720.074 126.304C719.802 125.936 719.386 125.752 718.826 125.752C718.33 125.752 717.81 125.912 717.266 126.232C716.738 126.552 716.138 127.048 715.466 127.72V135.784C715.466 135.928 715.394 136 715.25 136H713.786C713.626 136 713.546 135.928 713.546 135.784V127.96C713.546 127.224 713.41 126.672 713.138 126.304C712.866 125.936 712.45 125.752 711.89 125.752C711.394 125.752 710.882 125.912 710.354 126.232C709.826 126.552 709.226 127.048 708.554 127.72V135.784C708.554 135.928 708.482 136 708.338 136H706.85ZM730.221 136.264C728.701 136.264 727.541 135.88 726.741 135.112C725.941 134.344 725.541 133.2 725.541 131.68V128.608C725.541 127.088 725.933 125.944 726.717 125.176C727.517 124.408 728.685 124.024 730.221 124.024C731.741 124.024 732.901 124.408 733.701 125.176C734.501 125.944 734.901 127.088 734.901 128.608V131.68C734.901 133.2 734.501 134.344 733.701 135.112C732.917 135.88 731.757 136.264 730.221 136.264ZM730.221 134.56C731.165 134.56 731.861 134.312 732.309 133.816C732.757 133.32 732.981 132.56 732.981 131.536V128.776C732.981 127.752 732.757 126.992 732.309 126.496C731.861 126 731.165 125.752 730.221 125.752C729.261 125.752 728.557 126 728.109 126.496C727.661 126.992 727.437 127.752 727.437 128.776V131.536C727.437 132.56 727.661 133.32 728.109 133.816C728.557 134.312 729.261 134.56 730.221 134.56ZM742.433 136.264C740.945 136.264 739.833 135.888 739.097 135.136C738.361 134.384 737.993 133.256 737.993 131.752V123.472C737.993 122.112 738.369 121.088 739.121 120.4C739.889 119.696 741.001 119.344 742.457 119.344C743.785 119.344 744.777 119.64 745.433 120.232C746.089 120.808 746.417 121.672 746.417 122.824C746.417 123.704 746.241 124.472 745.889 125.128C745.537 125.768 745.049 126.224 744.425 126.496V126.52C745.385 126.648 746.073 127.024 746.489 127.648C746.921 128.256 747.137 129.072 747.137 130.096V131.584C747.137 133.104 746.729 134.264 745.913 135.064C745.113 135.864 743.953 136.264 742.433 136.264ZM742.48 134.56C743.409 134.56 744.097 134.312 744.545 133.816C744.993 133.32 745.217 132.56 745.217 131.536V129.976C745.217 129.208 745.041 128.648 744.689 128.296C744.337 127.928 743.793 127.744 743.057 127.744C742.785 127.744 742.481 127.768 742.145 127.816C741.809 127.864 741.449 127.928 741.065 128.008C740.697 128.088 740.313 128.192 739.913 128.32V131.608C739.913 132.648 740.113 133.4 740.513 133.864C740.913 134.328 741.569 134.56 742.48 134.56ZM739.913 126.808L741.857 126.376C742.673 126.184 743.321 125.848 743.801 125.368C744.281 124.888 744.521 124.184 744.521 123.256C744.521 122.472 744.337 121.904 743.969 121.552C743.617 121.2 743.065 121.024 742.312 121.024C741.529 121.024 740.929 121.224 740.513 121.624C740.113 122.008 739.913 122.592 739.913 123.376V126.808ZM756.754 136C756.626 136 756.546 135.904 756.514 135.712C756.482 135.52 756.442 135.216 756.394 134.8C756.346 134.384 756.314 134 756.298 133.648L756.226 132.928V127.888C756.226 127.088 756.066 126.528 755.746 126.208C755.442 125.872 754.914 125.704 754.162 125.704C752.77 125.704 752.074 126.24 752.074 127.312C752.074 127.456 752.01 127.528 751.882 127.528H750.418C750.274 127.528 750.194 127.4 750.178 127.144C750.114 126.2 750.442 125.448 751.162 124.888C751.882 124.328 752.898 124.04 754.21 124.024C755.538 124.024 756.522 124.336 757.162 124.96C757.818 125.584 758.146 126.552 758.146 127.864V133.12C758.146 133.68 758.154 134.184 758.17 134.632C758.202 135.064 758.242 135.44 758.29 135.76C758.322 135.92 758.25 136 758.074 136H756.754ZM752.41 136.264C751.53 136.264 750.85 135.992 750.37 135.448C749.906 134.888 749.674 134.08 749.674 133.024C749.674 132.224 749.826 131.568 750.13 131.056C750.434 130.528 750.922 130.12 751.594 129.832C752.282 129.528 753.178 129.328 754.282 129.232L756.538 129.016V130.456L754.33 130.648C753.306 130.744 752.594 130.96 752.194 131.296C751.794 131.616 751.594 132.144 751.594 132.88C751.594 133.44 751.706 133.872 751.93 134.176C752.154 134.464 752.498 134.608 752.962 134.608C753.474 134.608 754.002 134.432 754.546 134.08C755.106 133.712 755.802 133.072 756.634 132.16L756.658 133.768C755.858 134.664 755.13 135.304 754.474 135.688C753.818 136.072 753.13 136.264 752.41 136.264ZM766.588 136.264C766.028 136.264 765.428 136.184 764.788 136.024C764.164 135.864 763.636 135.648 763.204 135.376L763.156 133.768C763.62 134.024 764.116 134.224 764.644 134.368C765.172 134.512 765.668 134.584 766.132 134.584C766.996 134.584 767.636 134.328 768.052 133.816C768.484 133.304 768.7 132.536 768.7 131.512V128.344C768.7 127.448 768.54 126.792 768.22 126.376C767.916 125.96 767.444 125.752 766.804 125.752C766.26 125.752 765.708 125.92 765.148 126.256C764.588 126.576 763.908 127.12 763.108 127.888L763.036 126.208C763.548 125.712 764.028 125.304 764.476 124.984C764.94 124.664 765.404 124.424 765.868 124.264C766.332 124.104 766.812 124.024 767.308 124.024C768.396 124.024 769.22 124.368 769.78 125.056C770.34 125.744 770.62 126.792 770.62 128.2V131.68C770.62 133.152 770.276 134.288 769.588 135.088C768.9 135.872 767.9 136.264 766.588 136.264ZM761.764 140.44C761.62 140.44 761.548 140.368 761.548 140.224V127.024C761.548 126.64 761.532 126.224 761.5 125.776C761.484 125.328 761.452 124.928 761.404 124.576C761.388 124.4 761.46 124.312 761.62 124.312H762.988C763.132 124.312 763.212 124.384 763.228 124.528C763.26 124.736 763.3 125.024 763.348 125.392C763.396 125.744 763.412 126.016 763.396 126.208L763.468 127.192V140.224C763.468 140.368 763.396 140.44 763.252 140.44H761.764ZM780.239 136C780.111 136 780.031 135.904 779.999 135.712C779.967 135.52 779.927 135.216 779.879 134.8C779.831 134.384 779.799 134 779.783 133.648L779.711 132.928V127.888C779.711 127.088 779.551 126.528 779.231 126.208C778.927 125.872 778.399 125.704 777.647 125.704C776.255 125.704 775.559 126.24 775.559 127.312C775.559 127.456 775.495 127.528 775.367 127.528H773.903C773.759 127.528 773.679 127.4 773.663 127.144C773.599 126.2 773.927 125.448 774.647 124.888C775.367 124.328 776.383 124.04 777.695 124.024C779.023 124.024 780.007 124.336 780.647 124.96C781.303 125.584 781.631 126.552 781.631 127.864V133.12C781.631 133.68 781.639 134.184 781.655 134.632C781.687 135.064 781.727 135.44 781.775 135.76C781.807 135.92 781.735 136 781.559 136H780.239ZM775.895 136.264C775.015 136.264 774.335 135.992 773.855 135.448C773.391 134.888 773.159 134.08 773.159 133.024C773.159 132.224 773.311 131.568 773.615 131.056C773.919 130.528 774.407 130.12 775.079 129.832C775.767 129.528 776.663 129.328 777.767 129.232L780.023 129.016V130.456L777.815 130.648C776.791 130.744 776.079 130.96 775.679 131.296C775.279 131.616 775.079 132.144 775.079 132.88C775.079 133.44 775.191 133.872 775.415 134.176C775.639 134.464 775.983 134.608 776.447 134.608C776.959 134.608 777.487 134.432 778.031 134.08C778.591 133.712 779.287 133.072 780.119 132.16L780.143 133.768C779.343 134.664 778.615 135.304 777.959 135.688C777.303 136.072 776.615 136.264 775.895 136.264ZM797.443 136C797.299 136 797.227 135.928 797.227 135.784V128.008C797.227 127.224 797.075 126.656 796.771 126.304C796.467 125.936 795.995 125.752 795.355 125.752C794.763 125.752 794.171 125.936 793.579 126.304C792.987 126.656 792.291 127.232 791.491 128.032L791.443 126.424C791.955 125.88 792.443 125.432 792.907 125.08C793.387 124.728 793.867 124.464 794.347 124.288C794.827 124.112 795.331 124.024 795.859 124.024C796.947 124.024 797.763 124.352 798.307 125.008C798.867 125.648 799.147 126.608 799.147 127.888V135.784C799.147 135.928 799.075 136 798.931 136H797.443ZM790.123 136C789.979 136 789.907 135.928 789.907 135.784V127.216C789.907 126.768 789.891 126.296 789.859 125.8C789.827 125.288 789.795 124.88 789.763 124.576C789.731 124.4 789.803 124.312 789.979 124.312H791.347C791.475 124.312 791.555 124.384 791.587 124.528C791.635 124.768 791.675 125.12 791.707 125.584C791.755 126.048 791.787 126.44 791.803 126.76L791.827 127.312V135.784C791.827 135.928 791.755 136 791.611 136H790.123ZM806.835 136.264C805.363 136.264 804.235 135.912 803.451 135.208C802.683 134.488 802.299 133.424 802.299 132.016V128.584C802.299 127.096 802.683 125.968 803.451 125.2C804.235 124.416 805.355 124.024 806.811 124.024C808.299 124.024 809.427 124.408 810.195 125.176C810.963 125.928 811.347 127.032 811.347 128.488V130.36C811.347 130.504 811.275 130.576 811.131 130.576H804.195V131.608C804.195 132.648 804.411 133.408 804.843 133.888C805.275 134.352 805.971 134.584 806.931 134.584C807.683 134.584 808.251 134.448 808.635 134.176C809.035 133.904 809.227 133.512 809.211 133C809.211 132.84 809.291 132.76 809.451 132.76H810.915C811.027 132.76 811.099 132.824 811.131 132.952C811.179 133.976 810.819 134.784 810.051 135.376C809.299 135.968 808.227 136.264 806.835 136.264ZM804.195 128.992H809.427V128.608C809.427 127.616 809.211 126.888 808.779 126.424C808.363 125.944 807.715 125.704 806.835 125.704C805.955 125.704 805.291 125.952 804.843 126.448C804.411 126.928 804.195 127.648 804.195 128.608V128.992ZM819.463 136.264C818.903 136.264 818.303 136.184 817.663 136.024C817.039 135.864 816.511 135.648 816.079 135.376L816.031 133.768C816.495 134.024 816.991 134.224 817.519 134.368C818.047 134.512 818.543 134.584 819.007 134.584C819.871 134.584 820.511 134.328 820.927 133.816C821.359 133.304 821.575 132.536 821.575 131.512V128.344C821.575 127.448 821.415 126.792 821.095 126.376C820.791 125.96 820.319 125.752 819.679 125.752C819.135 125.752 818.583 125.92 818.023 126.256C817.463 126.576 816.783 127.12 815.983 127.888L815.911 126.208C816.423 125.712 816.903 125.304 817.351 124.984C817.815 124.664 818.279 124.424 818.743 124.264C819.207 124.104 819.687 124.024 820.183 124.024C821.271 124.024 822.095 124.368 822.655 125.056C823.215 125.744 823.495 126.792 823.495 128.2V131.68C823.495 133.152 823.151 134.288 822.463 135.088C821.775 135.872 820.775 136.264 819.463 136.264ZM814.639 140.44C814.495 140.44 814.423 140.368 814.423 140.224V127.024C814.423 126.64 814.407 126.224 814.375 125.776C814.359 125.328 814.327 124.928 814.279 124.576C814.263 124.4 814.335 124.312 814.495 124.312H815.863C816.007 124.312 816.087 124.384 816.103 124.528C816.135 124.736 816.175 125.024 816.223 125.392C816.271 125.744 816.287 126.016 816.271 126.208L816.343 127.192V140.224C816.343 140.368 816.271 140.44 816.127 140.44H814.639ZM830.905 136.264C829.433 136.264 828.305 135.912 827.521 135.208C826.753 134.488 826.369 133.424 826.369 132.016V128.584C826.369 127.096 826.753 125.968 827.521 125.2C828.305 124.416 829.425 124.024 830.881 124.024C832.369 124.024 833.497 124.408 834.265 125.176C835.033 125.928 835.417 127.032 835.417 128.488V130.36C835.417 130.504 835.345 130.576 835.201 130.576H828.265V131.608C828.265 132.648 828.481 133.408 828.913 133.888C829.345 134.352 830.041 134.584 831.001 134.584C831.753 134.584 832.321 134.448 832.705 134.176C833.105 133.904 833.297 133.512 833.281 133C833.281 132.84 833.361 132.76 833.521 132.76H834.985C835.097 132.76 835.169 132.824 835.201 132.952C835.249 133.976 834.889 134.784 834.121 135.376C833.369 135.968 832.297 136.264 830.905 136.264ZM828.265 128.992H833.497V128.608C833.497 127.616 833.281 126.888 832.849 126.424C832.433 125.944 831.785 125.704 830.905 125.704C830.025 125.704 829.361 125.952 828.913 126.448C828.481 126.928 828.265 127.648 828.265 128.608V128.992ZM842.765 140.704C841.373 140.704 840.309 140.416 839.573 139.84C838.853 139.28 838.525 138.552 838.589 137.656C838.605 137.432 838.693 137.32 838.853 137.32H840.317C840.445 137.32 840.509 137.416 840.509 137.608C840.493 138.072 840.677 138.424 841.061 138.664C841.461 138.92 842.029 139.048 842.765 139.048C843.709 139.048 844.389 138.84 844.805 138.424C845.221 138.024 845.429 137.36 845.429 136.432V135.52C845.429 135.232 845.429 134.952 845.429 134.68C845.429 134.408 845.429 134.136 845.429 133.864C844.773 134.456 844.141 134.896 843.533 135.184C842.925 135.456 842.269 135.592 841.565 135.592C840.445 135.592 839.605 135.256 839.045 134.584C838.485 133.896 838.205 132.848 838.205 131.44V128.632C838.205 127.08 838.573 125.928 839.309 125.176C840.061 124.408 841.197 124.024 842.717 124.024C843.549 124.024 844.309 124.104 844.997 124.264C845.685 124.424 846.469 124.544 847.349 124.624V136.312C847.349 137.272 847.173 138.072 846.821 138.712C846.469 139.368 845.949 139.864 845.261 140.2C844.589 140.536 843.757 140.704 842.765 140.704ZM842.069 133.888C842.581 133.888 843.093 133.752 843.605 133.48C844.133 133.208 844.741 132.752 845.429 132.112V126.016C845.029 125.936 844.589 125.872 844.109 125.824C843.645 125.76 843.229 125.728 842.861 125.728C841.917 125.728 841.221 125.968 840.773 126.448C840.341 126.928 840.125 127.696 840.125 128.752V131.296C840.125 132.208 840.277 132.872 840.581 133.288C840.885 133.688 841.381 133.888 842.069 133.888ZM738.58 165C738.436 165 738.364 164.928 738.364 164.784V157.008C738.364 156.224 738.212 155.656 737.908 155.304C737.604 154.936 737.132 154.752 736.492 154.752C735.9 154.752 735.308 154.936 734.716 155.304C734.124 155.656 733.428 156.232 732.628 157.032L732.58 155.424C733.092 154.88 733.58 154.432 734.044 154.08C734.524 153.728 735.004 153.464 735.484 153.288C735.964 153.112 736.468 153.024 736.996 153.024C738.084 153.024 738.9 153.352 739.444 154.008C740.004 154.648 740.284 155.608 740.284 156.888V164.784C740.284 164.928 740.212 165 740.068 165H738.58ZM731.26 165C731.116 165 731.044 164.928 731.044 164.784V156.216C731.044 155.768 731.028 155.296 730.996 154.8C730.964 154.288 730.932 153.88 730.9 153.576C730.868 153.4 730.94 153.312 731.116 153.312H732.484C732.612 153.312 732.692 153.384 732.724 153.528C732.772 153.768 732.812 154.12 732.844 154.584C732.892 155.048 732.924 155.44 732.94 155.76L732.964 156.312V164.784C732.964 164.928 732.892 165 732.748 165H731.26ZM748.116 165.264C746.596 165.264 745.436 164.88 744.636 164.112C743.836 163.344 743.436 162.2 743.436 160.68V157.608C743.436 156.088 743.828 154.944 744.612 154.176C745.412 153.408 746.58 153.024 748.116 153.024C749.636 153.024 750.796 153.408 751.596 154.176C752.396 154.944 752.796 156.088 752.796 157.608V160.68C752.796 162.2 752.396 163.344 751.596 164.112C750.812 164.88 749.652 165.264 748.116 165.264ZM748.116 163.56C749.06 163.56 749.756 163.312 750.204 162.816C750.652 162.32 750.876 161.56 750.876 160.536V157.776C750.876 156.752 750.652 155.992 750.204 155.496C749.756 155 749.06 154.752 748.116 154.752C747.156 154.752 746.452 155 746.004 155.496C745.556 155.992 745.332 156.752 745.332 157.776V160.536C745.332 161.56 745.556 162.32 746.004 162.816C746.452 163.312 747.156 163.56 748.116 163.56ZM765.151 164.736C765.199 164.8 765.207 164.864 765.175 164.928C765.143 164.976 765.087 165 765.007 165H763.255C763.111 165 763.023 164.952 762.991 164.856L759.559 159.528H757.831V164.784C757.831 164.928 757.759 165 757.615 165H756.127C755.983 165 755.911 164.928 755.911 164.784V148.824C755.911 148.68 755.983 148.608 756.127 148.608H757.615C757.759 148.608 757.831 148.68 757.831 148.824V157.968H759.511L762.655 153.432C762.719 153.352 762.807 153.312 762.919 153.312H764.623C764.815 153.312 764.855 153.4 764.743 153.576L761.191 158.568L765.151 164.736ZM768.628 169.44C768.564 169.44 768.516 169.408 768.484 169.344C768.452 169.296 768.452 169.24 768.484 169.176L770.092 164.88L765.868 153.576C765.82 153.4 765.876 153.312 766.036 153.312H767.644C767.788 153.312 767.868 153.368 767.884 153.48L769.948 159.336C770.124 159.832 770.3 160.352 770.476 160.896C770.652 161.44 770.82 161.968 770.98 162.48H771.028C771.188 161.968 771.356 161.44 771.532 160.896C771.724 160.352 771.9 159.832 772.06 159.336L774.124 153.48C774.14 153.368 774.22 153.312 774.364 153.312H775.924C776.116 153.312 776.172 153.4 776.092 153.576L770.356 169.272C770.308 169.384 770.228 169.44 770.116 169.44H768.628ZM785.853 165C785.709 165 785.637 164.928 785.637 164.784V157.008C785.637 156.224 785.485 155.656 785.181 155.304C784.877 154.936 784.405 154.752 783.765 154.752C783.173 154.752 782.581 154.936 781.989 155.304C781.397 155.656 780.701 156.232 779.901 157.032L779.853 155.424C780.365 154.88 780.853 154.432 781.317 154.08C781.797 153.728 782.277 153.464 782.757 153.288C783.237 153.112 783.741 153.024 784.269 153.024C785.357 153.024 786.173 153.352 786.717 154.008C787.277 154.648 787.557 155.608 787.557 156.888V164.784C787.557 164.928 787.485 165 787.341 165H785.853ZM778.533 165C778.389 165 778.317 164.928 778.317 164.784V156.216C778.317 155.768 778.301 155.296 778.269 154.8C778.237 154.288 778.205 153.88 778.173 153.576C778.141 153.4 778.213 153.312 778.389 153.312H779.757C779.885 153.312 779.965 153.384 779.997 153.528C780.045 153.768 780.085 154.12 780.117 154.584C780.165 155.048 780.197 155.44 780.213 155.76L780.237 156.312V164.784C780.237 164.928 780.165 165 780.021 165H778.533ZM800.237 164.736C800.285 164.8 800.293 164.864 800.261 164.928C800.229 164.976 800.173 165 800.093 165H798.341C798.197 165 798.109 164.952 798.077 164.856L794.645 159.528H792.917V164.784C792.917 164.928 792.845 165 792.701 165H791.213C791.069 165 790.997 164.928 790.997 164.784V148.824C790.997 148.68 791.069 148.608 791.213 148.608H792.701C792.845 148.608 792.917 148.68 792.917 148.824V157.968H794.597L797.741 153.432C797.805 153.352 797.893 153.312 798.005 153.312H799.709C799.901 153.312 799.941 153.4 799.829 153.576L796.277 158.568L800.237 164.736ZM806.217 165.264C804.697 165.264 803.537 164.88 802.737 164.112C801.937 163.344 801.537 162.2 801.537 160.68V157.608C801.537 156.088 801.929 154.944 802.713 154.176C803.513 153.408 804.681 153.024 806.217 153.024C807.737 153.024 808.897 153.408 809.697 154.176C810.497 154.944 810.897 156.088 810.897 157.608V160.68C810.897 162.2 810.497 163.344 809.697 164.112C808.913 164.88 807.753 165.264 806.217 165.264ZM806.217 163.56C807.161 163.56 807.857 163.312 808.305 162.816C808.753 162.32 808.977 161.56 808.977 160.536V157.776C808.977 156.752 808.753 155.992 808.305 155.496C807.857 155 807.161 154.752 806.217 154.752C805.257 154.752 804.553 155 804.105 155.496C803.657 155.992 803.433 156.752 803.433 157.776V160.536C803.433 161.56 803.657 162.32 804.105 162.816C804.553 163.312 805.257 163.56 806.217 163.56ZM817.037 165.264C816.061 165.264 815.309 164.944 814.781 164.304C814.269 163.648 814.013 162.688 814.013 161.424V153.528C814.013 153.384 814.085 153.312 814.229 153.312H815.717C815.861 153.312 815.933 153.384 815.933 153.528V161.304C815.933 162.088 816.069 162.664 816.341 163.032C816.629 163.384 817.061 163.56 817.637 163.56C818.229 163.56 818.805 163.376 819.365 163.008C819.941 162.64 820.621 162.048 821.405 161.232L821.429 162.888C820.949 163.416 820.461 163.856 819.965 164.208C819.485 164.56 818.997 164.824 818.501 165C818.021 165.176 817.533 165.264 817.037 165.264ZM821.597 165C821.453 165 821.365 164.928 821.333 164.784C821.301 164.464 821.269 164.136 821.237 163.8C821.205 163.448 821.181 163.096 821.165 162.744L821.045 161.928V153.528C821.045 153.384 821.117 153.312 821.261 153.312H822.749C822.893 153.312 822.965 153.384 822.965 153.528V162.096C822.965 162.56 822.973 163.016 822.989 163.464C823.005 163.912 823.045 164.344 823.109 164.76C823.141 164.92 823.061 165 822.869 165H821.597ZM818.501 151.656C817.765 151.656 817.173 151.52 816.725 151.248C816.277 150.96 815.965 150.728 815.789 150.552C815.725 150.504 815.693 150.416 815.693 150.288V149.112C815.693 149.032 815.717 148.976 815.765 148.944C815.813 148.896 815.869 148.912 815.933 148.992C816.157 149.2 816.493 149.44 816.941 149.712C817.389 149.968 817.909 150.096 818.501 150.096C819.109 150.096 819.629 149.968 820.061 149.712C820.509 149.44 820.845 149.2 821.069 148.992C821.149 148.912 821.205 148.896 821.237 148.944C821.285 148.976 821.309 149.032 821.309 149.112V150.288C821.309 150.416 821.285 150.504 821.237 150.552C821.061 150.728 820.749 150.96 820.301 151.248C819.853 151.52 819.253 151.656 818.501 151.656Z" fill="black"/>
</svg>
