<svg width="163" height="95" viewBox="0 0 163 95" fill="none" xmlns="http://www.w3.org/2000/svg">
<rect width="163" height="95" fill="#349EDF"/>
<path d="M107.823 20.1689H52.1777C48.4661 20.1727 44.9077 21.425 42.2831 23.6512C39.6586 25.8774 38.1822 28.8957 38.1777 32.0439V62.956C38.1822 66.1043 39.6586 69.1225 42.2831 71.3487C44.9077 73.5749 48.4661 74.8272 52.1777 74.831H107.823C111.534 74.8272 115.093 73.5749 117.717 71.3487C120.342 69.1225 121.818 66.1043 121.823 62.956V32.0439C121.818 28.8957 120.342 25.8774 117.717 23.6512C115.093 21.425 111.534 20.1727 107.823 20.1689ZM52.1777 24.9189H107.823C110.05 24.921 112.185 25.6723 113.76 27.008C115.335 28.3438 116.22 30.1549 116.223 32.0439V35.159H43.7777V32.0439C43.7801 30.1549 44.6659 28.3438 46.2407 27.008C47.8154 25.6723 49.9506 24.921 52.1777 24.9189ZM107.823 70.081H52.1777C49.9506 70.079 47.8154 69.3277 46.2407 67.9919C44.6659 66.6562 43.7801 64.845 43.7777 62.956V39.909H116.223V62.956C116.22 64.845 115.335 66.6562 113.76 67.9919C112.185 69.3277 110.05 70.079 107.823 70.081ZM108.569 58.9736C108.569 59.6035 108.274 60.2076 107.749 60.653C107.224 61.0984 106.512 61.3486 105.769 61.3486H99.0559C98.3133 61.3486 97.6011 61.0984 97.076 60.653C96.5509 60.2076 96.2559 59.6035 96.2559 58.9736C96.2559 58.3437 96.5509 57.7396 97.076 57.2942C97.6011 56.8488 98.3133 56.5986 99.0559 56.5986H105.769C106.512 56.5986 107.224 56.8488 107.749 57.2942C108.274 57.7396 108.569 58.3437 108.569 58.9736Z" fill="#86C1E6"/>
</svg>
