<svg width="163" height="95" viewBox="0 0 163 95" fill="none" xmlns="http://www.w3.org/2000/svg">
<rect width="163" height="95" fill="#47BF5D"/>
<path d="M122.422 20H40.5781C38.5683 20 36.6408 20.7819 35.2196 22.1738C33.7984 23.5657 33 25.4535 33 27.4219V68.9844C33 70.9528 33.7984 72.8406 35.2196 74.2324C36.6408 75.6243 38.5683 76.4062 40.5781 76.4062H122.422C124.432 76.4062 126.359 75.6243 127.78 74.2324C129.202 72.8406 130 70.9528 130 68.9844V27.4219C130 25.4535 129.202 23.5657 127.78 22.1738C126.359 20.7819 124.432 20 122.422 20ZM36.0312 27.4219C36.0312 26.2408 36.5103 25.1082 37.363 24.273C38.2157 23.4379 39.3722 22.9688 40.5781 22.9688H46.5891C47.5981 24.2435 48.149 25.809 48.1562 27.4219C48.1562 29.3903 47.3578 31.2781 45.9367 32.6699C44.5155 34.0618 42.588 34.8438 40.5781 34.8438C38.9312 34.8367 37.3329 34.2971 36.0312 33.3089V27.4219ZM46.5891 73.4375H40.5781C39.3722 73.4375 38.2157 72.9683 37.363 72.1332C36.5103 71.2981 36.0312 70.1654 36.0312 68.9844V63.0973C37.3329 62.1091 38.9312 61.5696 40.5781 61.5625C42.588 61.5625 44.5155 62.3444 45.9367 63.7363C47.3578 65.1282 48.1562 67.016 48.1562 68.9844C48.149 70.5973 47.5981 72.1627 46.5891 73.4375ZM126.969 68.9844C126.969 70.1654 126.49 71.2981 125.637 72.1332C124.784 72.9683 123.628 73.4375 122.422 73.4375H116.411C115.402 72.1627 114.851 70.5973 114.844 68.9844C114.844 67.016 115.642 65.1282 117.063 63.7363C118.485 62.3444 120.412 61.5625 122.422 61.5625C124.069 61.5696 125.667 62.1091 126.969 63.0973V68.9844ZM126.969 59.6477C125.553 58.9664 123.999 58.6061 122.422 58.5938C119.608 58.5938 116.91 59.6885 114.92 61.6371C112.93 63.5857 111.812 66.2286 111.812 68.9844C111.825 70.5291 112.193 72.0511 112.889 73.4375H50.1114C50.807 72.0511 51.1749 70.5291 51.1875 68.9844C51.1875 66.2286 50.0697 63.5857 48.0801 61.6371C46.0904 59.6885 43.3919 58.5938 40.5781 58.5938C39.0009 58.6061 37.4468 58.9664 36.0312 59.6477V36.7586C37.4468 37.4399 39.0009 37.8001 40.5781 37.8125C43.3919 37.8125 46.0904 36.7178 48.0801 34.7692C50.0697 32.8205 51.1875 30.1776 51.1875 27.4219C51.1749 25.8772 50.807 24.3551 50.1114 22.9688H112.889C112.193 24.3551 111.825 25.8772 111.812 27.4219C111.812 30.1776 112.93 32.8205 114.92 34.7692C116.91 36.7178 119.608 37.8125 122.422 37.8125C123.999 37.8001 125.553 37.4399 126.969 36.7586V59.6477ZM126.969 33.3089C125.667 34.2971 124.069 34.8367 122.422 34.8438C120.412 34.8438 118.485 34.0618 117.063 32.6699C115.642 31.2781 114.844 29.3903 114.844 27.4219C114.851 25.809 115.402 24.2435 116.411 22.9688H122.422C123.628 22.9688 124.784 23.4379 125.637 24.273C126.49 25.1082 126.969 26.2408 126.969 27.4219V33.3089ZM79.9844 40.7812H83.0156C83.8196 40.7812 84.5906 41.094 85.159 41.6508C85.7275 42.2075 86.0469 42.9626 86.0469 43.75C86.0469 44.1437 86.2066 44.5212 86.4908 44.7996C86.775 45.078 87.1605 45.2344 87.5625 45.2344C87.9645 45.2344 88.35 45.078 88.6342 44.7996C88.9184 44.5212 89.0781 44.1437 89.0781 43.75C89.0781 42.1753 88.4394 40.6651 87.3025 39.5516C86.1655 38.4381 84.6235 37.8125 83.0156 37.8125V36.3281C83.0156 35.9344 82.8559 35.5569 82.5717 35.2785C82.2875 35.0001 81.902 34.8438 81.5 34.8438C81.098 34.8438 80.7125 35.0001 80.4283 35.2785C80.1441 35.5569 79.9844 35.9344 79.9844 36.3281V37.8125C78.3765 37.8125 76.8345 38.4381 75.6975 39.5516C74.5606 40.6651 73.9219 42.1753 73.9219 43.75C73.9219 45.3247 74.5606 46.8349 75.6975 47.9484C76.8345 49.0619 78.3765 49.6875 79.9844 49.6875H83.0156C83.8196 49.6875 84.5906 50.0003 85.159 50.557C85.7275 51.1138 86.0469 51.8689 86.0469 52.6562C86.0469 53.4436 85.7275 54.1987 85.159 54.7555C84.5906 55.3122 83.8196 55.625 83.0156 55.625H79.9844C79.1804 55.625 78.4094 55.3122 77.841 54.7555C77.2725 54.1987 76.9531 53.4436 76.9531 52.6562C76.9531 52.2626 76.7934 51.885 76.5092 51.6066C76.225 51.3283 75.8395 51.1719 75.4375 51.1719C75.0355 51.1719 74.65 51.3283 74.3658 51.6066C74.0816 51.885 73.9219 52.2626 73.9219 52.6562C73.9219 54.231 74.5606 55.7412 75.6975 56.8547C76.8345 57.9682 78.3765 58.5938 79.9844 58.5938V60.0781C79.9844 60.4718 80.1441 60.8494 80.4283 61.1277C80.7125 61.4061 81.098 61.5625 81.5 61.5625C81.902 61.5625 82.2875 61.4061 82.5717 61.1277C82.8559 60.8494 83.0156 60.4718 83.0156 60.0781V58.5938C84.6235 58.5938 86.1655 57.9682 87.3025 56.8547C88.4394 55.7412 89.0781 54.231 89.0781 52.6562C89.0781 51.0815 88.4394 49.5713 87.3025 48.4578C86.1655 47.3443 84.6235 46.7188 83.0156 46.7188H79.9844C79.1804 46.7188 78.4094 46.406 77.841 45.8492C77.2725 45.2925 76.9531 44.5374 76.9531 43.75C76.9531 42.9626 77.2725 42.2075 77.841 41.6508C78.4094 41.094 79.1804 40.7812 79.9844 40.7812ZM81.5 28.9062C77.6031 28.9062 73.7937 30.038 70.5535 32.1584C67.3134 34.2787 64.788 37.2925 63.2967 40.8185C61.8054 44.3446 61.4152 48.2245 62.1755 51.9678C62.9357 55.711 64.8123 59.1494 67.5678 61.8481C70.3233 64.5468 73.8341 66.3846 77.6561 67.1292C81.4781 67.8738 85.4398 67.4916 89.0401 66.0311C92.6403 64.5706 95.7175 62.0972 97.8826 58.9239C100.048 55.7505 101.203 52.0197 101.203 48.2031C101.197 43.0872 99.1188 38.1826 95.4251 34.5651C91.7315 30.9476 86.7236 28.9125 81.5 28.9062ZM81.5 64.5312C78.2026 64.5312 74.9793 63.5736 72.2376 61.7795C69.4959 59.9853 67.3591 57.4352 66.0972 54.4516C64.8353 51.4681 64.5052 48.185 65.1485 45.0177C65.7918 41.8503 67.3796 38.9409 69.7112 36.6574C72.0428 34.3739 75.0135 32.8188 78.2475 32.1887C81.4815 31.5587 84.8337 31.8821 87.8801 33.1179C90.9264 34.3537 93.5302 36.4466 95.3622 39.1317C97.1941 41.8169 98.1719 44.9737 98.1719 48.2031C98.1671 52.5322 96.409 56.6825 93.2835 59.7436C90.1579 62.8047 85.9202 64.5265 81.5 64.5312Z" fill="#85DE96"/>
</svg>
