<svg width="600" height="600" viewBox="0 0 600 600" fill="none" xmlns="http://www.w3.org/2000/svg">
<g clip-path="url(#clip0_77_736)">
<path d="M300 50C161.875 50 50 161.875 50 300C50 438.125 161.875 550 300 550C438.125 550 550 438.125 550 300C550 161.875 438.125 50 300 50ZM300 125C341.375 125 375 158.625 375 200C375 241.5 341.375 275 300 275C258.625 275 225 241.5 225 200C225 158.625 258.625 125 300 125ZM300 480C237.375 480 182.375 448 150 399.5C150.625 349.875 250.125 322.5 300 322.5C349.875 322.5 449.25 349.875 450 399.5C417.625 448 362.625 480 300 480Z" fill="black"/>
</g>
<defs>
<clipPath id="clip0_77_736">
<rect width="600" height="600" fill="white"/>
</clipPath>
</defs>
</svg>
