<svg width="33" height="32" viewBox="0 0 33 32" fill="none" xmlns="http://www.w3.org/2000/svg">
<g clip-path="url(#clip0_77_604)">
<path d="M32.2637 9.49574L28.5419 21.2175C28.2637 22.0523 27.5333 22.6088 26.6637 22.6088H12.2985C11.4637 22.6088 10.6637 22.087 10.3854 21.3218L4.88977 6.60878H1.72456C0.959339 6.60878 0.333252 5.98269 0.333252 5.21748C0.333252 4.45226 0.959339 3.82617 1.72456 3.82617H5.86369C6.45499 3.82617 6.97673 4.20878 7.18543 4.7653L12.855 19.8262H26.0724L29.0289 10.4349H12.6463C11.8811 10.4349 11.255 9.80878 11.255 9.04356C11.255 8.27835 11.8811 7.65226 12.6463 7.65226H30.9419C31.3941 7.65226 31.8115 7.89574 32.055 8.24356C32.3333 8.59139 32.4028 9.07835 32.2637 9.49574ZM12.9941 24.4523C12.4028 24.4523 11.8115 24.6957 11.3941 25.1131C10.9767 25.5305 10.7333 26.1218 10.7333 26.7131C10.7333 27.3044 10.9767 27.8957 11.3941 28.3131C11.8115 28.7305 12.4028 28.974 12.9941 28.974C13.5854 28.974 14.1767 28.7305 14.5941 28.3131C15.0115 27.8957 15.255 27.3044 15.255 26.7131C15.255 26.1218 15.0115 25.5305 14.5941 25.1131C14.1767 24.6957 13.5854 24.4523 12.9941 24.4523ZM25.4811 24.4523C24.8898 24.4523 24.2985 24.6957 23.8811 25.1131C23.4637 25.5305 23.2202 26.1218 23.2202 26.7131C23.2202 27.3044 23.4637 27.8957 23.8811 28.3131C24.2985 28.7305 24.8898 28.974 25.4811 28.974C26.0724 28.974 26.6637 28.7305 27.0811 28.3131C27.4985 27.8957 27.7419 27.3044 27.7419 26.7131C27.7419 26.1218 27.4985 25.5305 27.0811 25.1131C26.6637 24.6957 26.0724 24.4523 25.4811 24.4523Z" fill="black"/>
</g>
<defs>
<clipPath id="clip0_77_604">
<rect width="32" height="32" fill="white" transform="translate(0.333252)"/>
</clipPath>
</defs>
</svg>
