<svg width="32" height="32" viewBox="0 0 32 32" fill="none" xmlns="http://www.w3.org/2000/svg">
<path d="M16 13.29C17.2168 13.292 18.4068 12.933 19.4195 12.2584C20.4321 11.5838 21.222 10.624 21.689 9.50043C22.156 8.37684 22.2792 7.13996 22.043 5.94632C21.8069 4.75268 21.2219 3.65592 20.3622 2.79483C19.5025 1.93373 18.4067 1.34701 17.2135 1.1089C16.0202 0.870786 14.7831 0.991992 13.6588 1.45718C12.5344 1.92236 11.5734 2.71061 10.8971 3.72219C10.2209 4.73377 9.85999 5.9232 9.85998 7.13998C9.85998 8.76933 10.5066 10.3321 11.6577 11.4852C12.8089 12.6382 14.3706 13.2873 16 13.29ZM16 2.99998C16.8216 2.99801 17.6254 3.23997 18.3094 3.69522C18.9934 4.15046 19.5268 4.7985 19.8422 5.55722C20.1575 6.31594 20.2405 7.1512 20.0807 7.95715C19.9209 8.7631 19.5255 9.50348 18.9445 10.0845C18.3635 10.6655 17.6231 11.0609 16.8171 11.2207C16.0112 11.3805 15.1759 11.2975 14.4172 10.9822C13.6585 10.6668 13.0105 10.1334 12.5552 9.44936C12.1 8.76536 11.858 7.96163 11.86 7.13998C11.8626 6.0428 12.2997 4.99131 13.0755 4.21548C13.8513 3.43965 14.9028 3.00263 16 2.99998ZM27.38 26.81C26.18 29.9 20.72 31 16 31C11.28 31 5.81999 29.9 4.61999 26.81C3.97999 25.16 4.54999 22.71 6.10999 20.42C7.19513 18.782 8.66252 17.4327 10.3855 16.4884C12.1086 15.5442 14.0355 15.0333 16 15C18.3185 15.0508 20.5749 15.7592 22.5065 17.0427C24.438 18.3262 25.9651 20.1321 26.91 22.25C26.9775 22.3713 27.0189 22.5053 27.0318 22.6435C27.0446 22.7817 27.0286 22.9211 26.9846 23.0527C26.9406 23.1844 26.8698 23.3055 26.7765 23.4082C26.6832 23.511 26.5695 23.5932 26.4427 23.6497C26.3159 23.7061 26.1787 23.7355 26.0399 23.7361C25.9011 23.7366 25.7637 23.7082 25.6365 23.6527C25.5092 23.5973 25.3949 23.5159 25.3008 23.4139C25.2068 23.3118 25.1349 23.1913 25.09 23.06C24.2889 21.304 23.0136 19.8065 21.4077 18.7359C19.8018 17.6653 17.929 17.0641 16 17C14.3618 17.0332 12.7564 17.4648 11.3225 18.2576C9.88857 19.0503 8.66927 20.1803 7.76998 21.55C6.42999 23.5 6.15999 25.27 6.47999 26.09C7.13999 27.78 11.14 29 16 29C20.86 29 24.86 27.78 25.52 26.09C25.6283 25.862 25.8188 25.6835 26.0533 25.5901C26.2877 25.4967 26.5488 25.4955 26.7842 25.5866C27.0196 25.6777 27.2118 25.8544 27.3223 26.0813C27.4328 26.3082 27.4534 26.5685 27.38 26.81Z" fill="#0D6EFD"/>
</svg>
