<svg width="33" height="32" viewBox="0 0 33 32" fill="none" xmlns="http://www.w3.org/2000/svg">
<path d="M16.3332 13.29C17.55 13.292 18.74 12.933 19.7527 12.2584C20.7654 11.5838 21.5552 10.624 22.0222 9.50043C22.4892 8.37684 22.6125 7.13996 22.3763 5.94632C22.1401 4.75268 21.5552 3.65592 20.6955 2.79483C19.8358 1.93373 18.74 1.34701 17.5467 1.1089C16.3535 0.870786 15.1164 0.991992 13.992 1.45718C12.8677 1.92236 11.9066 2.71061 11.2304 3.72219C10.5542 4.73377 10.1932 5.9232 10.1932 7.13998C10.1932 8.76933 10.8398 10.3321 11.991 11.4852C13.1422 12.6382 14.7039 13.2873 16.3332 13.29ZM16.3332 2.99998C17.1549 2.99801 17.9586 3.23997 18.6426 3.69522C19.3266 4.15046 19.8601 4.7985 20.1754 5.55722C20.4908 6.31594 20.5738 7.1512 20.414 7.95715C20.2542 8.7631 19.8587 9.50348 19.2777 10.0845C18.6967 10.6655 17.9564 11.0609 17.1504 11.2207C16.3444 11.3805 15.5092 11.2975 14.7505 10.9822C13.9918 10.6668 13.3437 10.1334 12.8885 9.44936C12.4332 8.76536 12.1913 7.96163 12.1932 7.13998C12.1959 6.0428 12.6329 4.99131 13.4087 4.21548C14.1846 3.43965 15.2361 3.00263 16.3332 2.99998ZM27.7132 26.81C26.5132 29.9 21.0532 31 16.3332 31C11.6132 31 6.15324 29.9 4.95324 26.81C4.31324 25.16 4.88324 22.71 6.44324 20.42C7.52838 18.782 8.99577 17.4327 10.7188 16.4884C12.4418 15.5442 14.3687 15.0333 16.3332 15C18.6518 15.0508 20.9082 15.7592 22.8397 17.0427C24.7712 18.3262 26.2983 20.1321 27.2432 22.25C27.3107 22.3713 27.3522 22.5053 27.365 22.6435C27.3779 22.7817 27.3618 22.9211 27.3178 23.0527C27.2739 23.1844 27.203 23.3055 27.1097 23.4082C27.0164 23.511 26.9027 23.5932 26.7759 23.6497C26.6491 23.7061 26.5119 23.7355 26.3731 23.7361C26.2343 23.7366 26.0969 23.7082 25.9697 23.6527C25.8425 23.5973 25.7282 23.5159 25.6341 23.4139C25.54 23.3118 25.4682 23.1913 25.4232 23.06C24.6221 21.304 23.3469 19.8065 21.741 18.7359C20.1351 17.6653 18.2622 17.0641 16.3332 17C14.6951 17.0332 13.0897 17.4648 11.6558 18.2576C10.2218 19.0503 9.00252 20.1803 8.10324 21.55C6.76324 23.5 6.49324 25.27 6.81324 26.09C7.47324 27.78 11.4732 29 16.3332 29C21.1932 29 25.1932 27.78 25.8532 26.09C25.9615 25.862 26.152 25.6835 26.3865 25.5901C26.621 25.4967 26.8821 25.4955 27.1175 25.5866C27.3528 25.6777 27.545 25.8544 27.6555 26.0813C27.766 26.3082 27.7866 26.5685 27.7132 26.81Z" fill="#22242B"/>
</svg>
