<svg width="22" height="22" viewBox="0 0 22 22" fill="none" xmlns="http://www.w3.org/2000/svg">
<path d="M19.0667 11.6873L9.90004 8.87317C9.74003 8.82568 9.57008 8.82277 9.40854 8.86477C9.247 8.90677 9.09999 8.99208 8.98337 9.1115C8.86712 9.23005 8.78525 9.37794 8.74651 9.53939C8.70776 9.70084 8.71359 9.86978 8.76337 10.0282L11.7059 19.0848C11.7635 19.2569 11.871 19.408 12.0146 19.519C12.1582 19.6299 12.3315 19.6958 12.5125 19.7082H12.5859C12.7561 19.7068 12.9226 19.6581 13.0667 19.5674C13.2108 19.4767 13.3268 19.3477 13.4017 19.1948L15.3267 15.3082L19.25 13.3832C19.4136 13.3007 19.5488 13.1711 19.638 13.0112C19.7273 12.8512 19.7665 12.6681 19.7507 12.4856C19.7349 12.3031 19.6648 12.1295 19.5495 11.9872C19.4341 11.8449 19.2787 11.7405 19.1034 11.6873H19.0667ZM5.75671 4.47317C5.58409 4.30056 5.34998 4.20359 5.10587 4.20359C4.86176 4.20359 4.62765 4.30056 4.45504 4.47317C4.28243 4.64578 4.18546 4.87989 4.18546 5.124C4.18546 5.36811 4.28243 5.60222 4.45504 5.77484L6.98504 8.29567C7.07069 8.38063 7.17227 8.44784 7.28396 8.49346C7.39564 8.53908 7.51523 8.5622 7.63587 8.5615C7.86678 8.55346 8.08613 8.45852 8.25004 8.29567C8.33596 8.21045 8.40415 8.10907 8.45069 7.99737C8.49723 7.88566 8.52119 7.76585 8.52119 7.64484C8.52119 7.52383 8.49723 7.40401 8.45069 7.29231C8.40415 7.1806 8.33596 7.07922 8.25004 6.994L5.75671 4.47317ZM6.24254 11.2565C6.46226 11.2593 6.67568 11.1831 6.84393 11.0418C7.01218 10.9005 7.12407 10.7034 7.15921 10.4865C7.19919 10.2484 7.14365 10.0042 7.00463 9.8068C6.86561 9.60943 6.65435 9.47487 6.41671 9.43234L2.85087 8.87317C2.61447 8.84418 2.37607 8.90834 2.18615 9.05207C1.99623 9.19579 1.86971 9.40779 1.83337 9.64317C1.79641 9.88253 1.85568 10.1268 1.99824 10.3226C2.1408 10.5184 2.35506 10.6498 2.59421 10.6882L6.12337 11.2473L6.24254 11.2565ZM6.28837 12.5215L3.10754 14.1348C2.92485 14.2284 2.77886 14.3806 2.69295 14.567C2.60704 14.7535 2.58619 14.9633 2.63373 15.163C2.68128 15.3627 2.79446 15.5406 2.95516 15.6683C3.11587 15.796 3.31478 15.8661 3.52004 15.8673C3.66394 15.8699 3.80604 15.8351 3.93254 15.7665L7.12254 14.1532C7.23336 14.1006 7.3325 14.0263 7.41409 13.9347C7.49567 13.8431 7.55805 13.7361 7.59752 13.6199C7.63698 13.5038 7.65274 13.3809 7.64386 13.2586C7.63497 13.1363 7.60162 13.0169 7.54579 12.9077C7.48995 12.7985 7.41277 12.7016 7.3188 12.6228C7.22484 12.5439 7.116 12.4847 6.99875 12.4487C6.88149 12.4127 6.75821 12.4006 6.63618 12.4131C6.51416 12.4256 6.39589 12.4625 6.28837 12.5215ZM12.9342 7.58067C13.0655 7.64531 13.2096 7.67977 13.3559 7.6815C13.5252 7.68099 13.691 7.63361 13.835 7.54462C13.979 7.45563 14.0955 7.32851 14.1717 7.17734L15.7942 4.00567C15.8524 3.89719 15.8881 3.7781 15.8993 3.65551C15.9104 3.53291 15.8968 3.40933 15.8591 3.29213C15.8215 3.17493 15.7606 3.06651 15.6802 2.97334C15.5997 2.88017 15.5013 2.80416 15.3909 2.74984C15.1755 2.64043 14.9256 2.62046 14.6956 2.69428C14.4656 2.76809 14.274 2.92971 14.1625 3.144L12.54 6.34317C12.4844 6.45026 12.4505 6.56727 12.4403 6.6875C12.43 6.80772 12.4435 6.9288 12.4802 7.04377C12.5168 7.15874 12.5757 7.26535 12.6537 7.35749C12.7316 7.44962 12.8269 7.52547 12.9342 7.58067ZM10.3492 7.19567H10.4959C10.6152 7.17673 10.7296 7.1344 10.8325 7.07109C10.9354 7.00779 11.0248 6.92476 11.0955 6.8268C11.1662 6.72883 11.2168 6.61785 11.2445 6.50024C11.2722 6.38263 11.2763 6.26072 11.2567 6.1415L10.6975 2.6215C10.6783 2.50112 10.6355 2.38572 10.5716 2.28187C10.5078 2.17803 10.4241 2.08778 10.3253 2.01628C10.2266 1.94478 10.1147 1.89343 9.99616 1.86515C9.87758 1.83688 9.75458 1.83224 9.63421 1.8515C9.51383 1.87076 9.39842 1.91355 9.29458 1.97741C9.19073 2.04127 9.10048 2.12496 9.02898 2.2237C8.95748 2.32244 8.90613 2.43429 8.87786 2.55288C8.84958 2.67146 8.84495 2.79446 8.86421 2.91484L9.44171 6.4165C9.47463 6.63351 9.58433 6.83151 9.75086 6.97449C9.9174 7.11748 10.1297 7.19596 10.3492 7.19567Z" fill="black"/>
</svg>
